<svg viewBox="0 0 200 200" xmlns="http://www.w3.org/2000/svg">
  <!-- Top center person - blue -->
  <circle cx="100" cy="35" r="12" fill="#4A90E2"/>
  <path d="M100 50 Q90 62 90 75 Q90 82 100 82 Q110 82 110 75 Q110 62 100 50" fill="#4A90E2"/>
  
  <!-- Top right person - green -->
  <circle cx="145" cy="50" r="12" fill="#7ED321"/>
  <path d="M145 65 Q135 77 135 90 Q135 97 145 97 Q155 97 155 90 Q155 77 145 65" fill="#7ED321"/>
  
  <!-- Far top right - light green -->
  <circle cx="165" cy="45" r="10" fill="#9FD321"/>
  <path d="M165 58 Q157 68 157 78 Q157 84 165 84 Q173 84 173 78 Q173 68 165 58" fill="#9FD321"/>
  
  <!-- Middle right person - yellow -->
  <circle cx="175" cy="95" r="12" fill="#F5D547"/>
  <path d="M175 110 Q165 122 165 135 Q165 142 175 142 Q185 142 185 135 Q185 122 175 110" fill="#F5D547"/>
  
  <!-- Bottom right person - orange -->
  <circle cx="155" cy="155" r="12" fill="#FF9500"/>
  <path d="M155 170 Q145 180 145 190 Q145 197 155 197 Q165 197 165 190 Q165 180 155 170" fill="#FF9500"/>
  
  <!-- Bottom center person - red -->
  <circle cx="100" cy="175" r="12" fill="#E74C3C"/>
  <path d="M100 190 Q90 200 90 210 Q90 217 100 217 Q110 217 110 210 Q110 200 100 190" fill="#E74C3C"/>
  
  <!-- Bottom left person - pink/magenta -->
  <circle cx="45" cy="155" r="12" fill="#E85D75"/>
  <path d="M45 170 Q35 180 35 190 Q35 197 45 197 Q55 197 55 190 Q55 180 45 170" fill="#E85D75"/>
  
  <!-- Middle left person - cyan -->
  <circle cx="25" cy="95" r="12" fill="#2BCDCD"/>
  <path d="M25 110 Q15 122 15 135 Q15 142 25 142 Q35 142 35 135 Q35 122 25 110" fill="#2BCDCD"/>
  
  <!-- Far middle left - light blue -->
  <circle cx="35" cy="55" r="10" fill="#5DADE2"/>
  <path d="M35 68 Q27 78 27 88 Q27 94 35 94 Q43 94 43 88 Q43 78 35 68" fill="#5DADE2"/>
  
  <!-- Top left person - dark blue -->
  <circle cx="55" cy="50" r="12" fill="#3B5998"/>
  <path d="M55 65 Q45 77 45 90 Q45 97 55 97 Q65 97 65 90 Q65 77 55 65" fill="#3B5998"/>
  
  <!-- Center circle connector -->
  <circle cx="100" cy="100" r="20" fill="none" stroke="#00D9FF" strokeWidth="2" opacity="0.4"/>
  <circle cx="100" cy="100" r="15" fill="none" stroke="#FF006E" strokeWidth="1.5" opacity="0.3"/>
</svg>
