<?xml version="1.0" encoding="UTF-8"?>
<svg version="1.1" xmlns="http://www.w3.org/2000/svg" width="200" height="200">
<path d="M0 0 C0.886875 0.391875 1.77375 0.78375 2.6875 1.1875 C3.62987974 4.87134808 4.04789333 6.5267789 2.1875 9.9375 C1.6925 10.68 1.1975 11.4225 0.6875 12.1875 C1.1825 13.1775 1.1825 13.1775 1.6875 14.1875 C2.19711668 18.51924179 1.97674624 21.26430868 -0.5 24.8125 C-2.89032774 27.83797196 -5.50919214 30.54438116 -8.3125 33.1875 C-7.23546707 34.31304266 -7.23546707 34.31304266 -5.5 35.53515625 C1.13496562 40.73649537 1.13496562 40.73649537 1.8125 45.375 C1.7016786 48.75505261 1.60868533 50.47523835 -0.3125 53.1875 C0.6775 53.5175 1.6675 53.8475 2.6875 54.1875 C3.4375 56.9375 3.4375 56.9375 3.6875 60.1875 C2.125 62.625 2.125 62.625 -0.3125 64.1875 C-4.0110004 64.03955998 -5.67055573 63.82944427 -8.3125 61.1875 C-8.84875 61.538125 -9.385 61.88875 -9.9375 62.25 C-13.13921352 63.51383428 -15.01832367 63.07967276 -18.3125 62.1875 C-20.6875 60.75 -20.6875 60.75 -22.3125 59.1875 C-22.3125 58.5275 -22.3125 57.8675 -22.3125 57.1875 C-22.89 56.92582031 -23.4675 56.66414063 -24.0625 56.39453125 C-29.62478661 53.41059624 -34.82695237 48.41582144 -38.3125 43.1875 C-38.3125 42.1975 -38.3125 41.2075 -38.3125 40.1875 C-38.9725 41.1775 -39.6325 42.1675 -40.3125 43.1875 C-39.65121094 43.79078125 -38.98992187 44.3940625 -38.30859375 45.015625 C-37.46425781 45.81484375 -36.61992188 46.6140625 -35.75 47.4375 C-34.90308594 48.22640625 -34.05617188 49.0153125 -33.18359375 49.828125 C-31.3125 52.1875 -31.3125 52.1875 -31.3984375 54.2890625 C-33.52458884 58.70491528 -35.99330404 61.52790202 -40.3125 63.6875 C-43.7199585 64.25540975 -45.29686529 63.78401249 -48.3125 62.1875 C-48.663125 62.703125 -49.01375 63.21875 -49.375 63.75 C-51.3125 65.1875 -51.3125 65.1875 -55 64.875 C-56.093125 64.648125 -57.18625 64.42125 -58.3125 64.1875 C-59.5 61.5 -59.5 61.5 -60.3125 58.1875 C-59.34817924 56.49993867 -58.35039581 54.83083504 -57.3125 53.1875 C-58.17899466 51.20419827 -58.17899466 51.20419827 -59.3125 49.1875 C-59.38318011 46.00689512 -59.02078264 44.01748755 -56.92578125 41.5625 C-55.73224501 40.40383111 -54.52289081 39.2613029 -53.30078125 38.1328125 C-49.90675599 34.81213553 -47.14650821 30.98627696 -44.3125 27.1875 C-44.9725 27.1875 -45.6325 27.1875 -46.3125 27.1875 C-46.3125 27.8475 -46.3125 28.5075 -46.3125 29.1875 C-48.08203125 29.89453125 -48.08203125 29.89453125 -50.3125 30.1875 C-52.19921875 28.82421875 -52.19921875 28.82421875 -54 26.875 C-54.60199219 26.23949219 -55.20398438 25.60398437 -55.82421875 24.94921875 C-58.77933037 21.45117323 -58.39545782 18.66722211 -58.3125 14.1875 C-57.054375 13.878125 -55.79625 13.56875 -54.5 13.25 C-51.65100176 12.22133515 -50.57993091 11.6788063 -49.11328125 8.984375 C-48.3861706 6.72855854 -47.77997675 4.51027512 -47.3125 2.1875 C-44.06280128 1.5743493 -42.46237324 1.35471858 -39.3125 2.1875 C-35.29031044 5.19228119 -31.80605035 8.59119817 -28.3125 12.1875 C-27.71179688 11.41921875 -27.11109375 10.6509375 -26.4921875 9.859375 C-23.23393832 5.86539214 -20.23487686 2.72576552 -15.1875 1.3125 C-12.3125 1.1875 -12.3125 1.1875 -10.25 1.8125 C-8.12209433 2.45830933 -8.12209433 2.45830933 -5.9375 0.625 C-3.3125 -0.8125 -3.3125 -0.8125 0 0 Z M-26.3125 14.1875 C-24.6625 15.8375 -23.0125 17.4875 -21.3125 19.1875 C-22.10367904 17.18766466 -22.10367904 17.18766466 -23.3125 15.1875 C-24.3025 14.8575 -25.2925 14.5275 -26.3125 14.1875 Z M-39.3125 19.1875 C-40.1375 20.13625 -40.9625 21.085 -41.8125 22.0625 C-42.2765625 22.59617187 -42.740625 23.12984375 -43.21875 23.6796875 C-44.50822458 25.14686421 -44.50822458 25.14686421 -44.3125 27.1875 C-43.6525 27.1875 -42.9925 27.1875 -42.3125 27.1875 C-41.6525 26.1975 -40.9925 25.2075 -40.3125 24.1875 C-35.99857774 24.6668247 -34.14680453 25.9332985 -31.3125 29.1875 C-31.9725 31.1675 -32.6325 33.1475 -33.3125 35.1875 C-31.3325 35.5175 -29.3525 35.8475 -27.3125 36.1875 C-26.3225 34.8675 -25.3325 33.5475 -24.3125 32.1875 C-25.55924659 29.69400682 -27.01210106 28.72109929 -29.3125 27.1875 C-29.9725 27.1875 -30.6325 27.1875 -31.3125 27.1875 C-31.6425 26.1975 -31.9725 25.2075 -32.3125 24.1875 C-33.94132397 22.74801882 -33.94132397 22.74801882 -35.875 21.5 C-36.51566406 21.06300781 -37.15632813 20.62601563 -37.81640625 20.17578125 C-38.31011719 19.84964844 -38.80382812 19.52351563 -39.3125 19.1875 Z M-20.3125 20.1875 C-19.9825 21.5075 -19.6525 22.8275 -19.3125 24.1875 C-18.6525 24.1875 -17.9925 24.1875 -17.3125 24.1875 C-17.3125 22.8675 -17.3125 21.5475 -17.3125 20.1875 C-18.3025 20.1875 -19.2925 20.1875 -20.3125 20.1875 Z M-11.3125 35.1875 C-11.6425 35.8475 -11.9725 36.5075 -12.3125 37.1875 C-11.6525 37.1875 -10.9925 37.1875 -10.3125 37.1875 C-10.6425 36.5275 -10.9725 35.8675 -11.3125 35.1875 Z M-25.3125 38.1875 C-24.6525 38.8475 -23.9925 39.5075 -23.3125 40.1875 C-23.3125 39.5275 -23.3125 38.8675 -23.3125 38.1875 C-23.9725 38.1875 -24.6325 38.1875 -25.3125 38.1875 Z M-23.3125 40.1875 C-22.6525 40.8475 -21.9925 41.5075 -21.3125 42.1875 C-21.3125 41.5275 -21.3125 40.8675 -21.3125 40.1875 C-21.9725 40.1875 -22.6325 40.1875 -23.3125 40.1875 Z M-21.3125 42.1875 C-20.3225 43.1775 -19.3325 44.1675 -18.3125 45.1875 C-18.3125 44.1975 -18.3125 43.2075 -18.3125 42.1875 C-19.3025 42.1875 -20.2925 42.1875 -21.3125 42.1875 Z M-5.3125 52.1875 C-1.3125 53.1875 -1.3125 53.1875 -1.3125 53.1875 Z M-7.3125 53.1875 C-6.9825 53.8475 -6.6525 54.5075 -6.3125 55.1875 C-5.9825 54.5275 -5.6525 53.8675 -5.3125 53.1875 C-5.9725 53.1875 -6.6325 53.1875 -7.3125 53.1875 Z " fill="#F6810A" transform="translate(126.3125,70.8125)"/>
<path d="M0 0 C10.53120226 -0.55212128 10.53120226 -0.55212128 15 3 C15.69996094 3.53367187 16.39992187 4.06734375 17.12109375 4.6171875 C19.43418467 6.38713885 21.71687907 8.19166914 24 10 C25.010625 10.763125 26.02125 11.52625 27.0625 12.3125 C27.701875 12.869375 28.34125 13.42625 29 14 C29 14.66 29 15.32 29 16 C29.56976563 16.12503906 30.13953125 16.25007813 30.7265625 16.37890625 C33.08953898 17.02446168 35.15530083 17.9055346 37.375 18.9375 C40.86204512 20.52252051 44.33366417 21.87189667 48 23 C47.505 24.485 47.505 24.485 47 26 C40.07 26 33.14 26 26 26 C26.33 27.98 26.66 29.96 27 32 C27.66 31.67 28.32 31.34 29 31 C29.33 30.01 29.66 29.02 30 28 C31.41433206 27.7763663 32.83167618 27.57173524 34.25 27.375 C35.03890625 27.25898437 35.8278125 27.14296875 36.640625 27.0234375 C39.35820445 26.99644168 40.72136545 27.55902541 43 29 C45.06466502 31.65456931 44.99684937 33.0882176 44.875 36.5 C43.898503 40.405988 43.38216497 41.83194553 40 44 C37.09284122 44.51578624 35.01705419 44.33522824 32 44 C30 42.5 30 42.5 29 41 C28.34 42.98 27.68 44.96 27 47 C23.43517511 45.81172504 22.68346134 44.42274883 20.95019531 41.19287109 C19.15884888 37.05878228 18.30562106 32.70539877 17.375 28.3125 C16.9706882 26.45343339 16.5619949 24.59531301 16.1484375 22.73828125 C15.97489746 21.92399658 15.80135742 21.10971191 15.62255859 20.27075195 C15.07357291 17.96962737 15.07357291 17.96962737 13.92822266 15.89135742 C13 14 13 14 13 11 C12.46375 10.773125 11.9275 10.54625 11.375 10.3125 C9 9 9 9 5.9375 6.4375 C3.19794312 3.86462201 3.19794312 3.86462201 0 3 C0 2.01 0 1.02 0 0 Z " fill="#F3C129" transform="translate(131,77)"/>
<path d="M0 0 C1.80078125 0.140625 1.80078125 0.140625 4 1 C5.66796875 3.546875 5.66796875 3.546875 7.1875 6.75 C7.69667969 7.79671875 8.20585937 8.8434375 8.73046875 9.921875 C10.64094059 14.55403443 11.07747715 18.57439655 11.23974609 23.57128906 C11.53524606 31.91271771 12.34260125 40.2751308 17.6328125 47.109375 C19 49 19 49 19 52 C16.5625 51.1875 16.5625 51.1875 14 50 C13.67 49.01 13.34 48.02 13 47 C12.34 47 11.68 47 11 47 C11 46.34 11 45.68 11 45 C10.34 45 9.68 45 9 45 C9.33 45.66 9.66 46.32 10 47 C10.89871087 54.76427256 10.89871087 54.76427256 8.5 58.0625 C4.93578762 59.39907964 1.70650423 59.77799891 -2 59 C-5 56.875 -5 56.875 -7 54 C-7.3125 50.6875 -7.3125 50.6875 -7 48 C-7.66 48 -8.32 48 -9 48 C-9 48.99 -9 49.98 -9 51 C-11.475 51.495 -11.475 51.495 -14 52 C-13.61916483 45.33538459 -10.9309103 40.64655279 -7.625 34.9375 C-6.63711671 33.19712748 -5.65011481 31.45625431 -4.6640625 29.71484375 C-4.20128906 28.89765869 -3.73851562 28.08047363 -3.26171875 27.23852539 C0.33094878 21.08886265 0.33094878 21.08886265 1.25 14.1875 C1.22421875 13.33800781 1.1984375 12.48851563 1.171875 11.61328125 C0.91572091 7.7185748 0.49951801 3.87126458 0 0 Z M-1.625 40.5 C-2.40875 41.325 -3.1925 42.15 -4 43 C-1.47524538 44.26237731 0.31200466 44.09856404 3.125 44.0625 C4.03507812 44.05347656 4.94515625 44.04445313 5.8828125 44.03515625 C6.93082031 44.01775391 6.93082031 44.01775391 8 44 C7.34 43.01 6.68 42.02 6 41 C5.34 41 4.68 41 4 41 C3.67 40.01 3.34 39.02 3 38 C0.63721264 37.77011494 0.63721264 37.77011494 -1.625 40.5 Z M-5 44 C-5.66 45.32 -6.32 46.64 -7 48 C-6.01 47.34 -5.02 46.68 -4 46 C-4.33 45.34 -4.66 44.68 -5 44 Z " fill="#E8882A" transform="translate(138,108)"/>
<path d="M0 0 C3 1 3 1 4.24609375 2.8359375 C7.53569412 9.84656124 9.20359496 16.76373691 10.48022461 24.36083984 C11.37658605 29.32569477 12.50547194 32.17854104 16 36 C16 36.66 16 37.32 16 38 C16.515625 38.226875 17.03125 38.45375 17.5625 38.6875 C20.92403127 40.4975553 23.92911144 42.73996404 27 45 C24 47 24 47 21.58203125 46.75 C14.84606354 44.92587334 10.25864732 42.52912399 5 38 C-3.32612868 31.06378686 -10.83511002 26.63031785 -21 23 C-19 21 -19 21 -17.0546875 20.8046875 C-15.03645833 20.86979167 -13.01822917 20.93489583 -11 21 C-11 20.34 -11 19.68 -11 19 C-11.639375 18.896875 -12.27875 18.79375 -12.9375 18.6875 C-13.618125 18.460625 -14.29875 18.23375 -15 18 C-15.33 17.01 -15.66 16.02 -16 15 C-16.66 14.67 -17.32 14.34 -18 14 C-17.51714678 6.63648834 -17.51714678 6.63648834 -15.375 4 C-11.38954174 2.32191231 -7.74159284 2.4958547 -3.625 3.6875 C-2 5 -2 5 -1.25 7.625 C-1.12625 8.800625 -1.12625 8.800625 -1 10 C-0.67 6.7 -0.34 3.4 0 0 Z M-2 14 C-3.65 15.98 -5.3 17.96 -7 20 C-3.86650268 21.04449911 -3.01031744 20.93423645 0 20 C0.33 18.35 0.66 16.7 1 15 C0.01 14.67 -0.98 14.34 -2 14 Z " fill="#75CCE3" transform="translate(37,82)"/>
<path d="M0 0 C4.83256305 0.41421969 6.82679218 2.46413986 10 6 C9.690625 6.5775 9.38125 7.155 9.0625 7.75 C7.92499553 9.90791183 7.92499553 9.90791183 7.625 12.0625 C6.76493831 14.72869123 5.28559014 15.45386549 3 17 C1.98675673 17.98657897 0.98441103 18.98465034 0 20 C0.66128906 20.60328125 1.32257813 21.2065625 2.00390625 21.828125 C2.84824219 22.62734375 3.69257812 23.4265625 4.5625 24.25 C5.40941406 25.03890625 6.25632812 25.8278125 7.12890625 26.640625 C9 29 9 29 8.9140625 31.1015625 C6.78791116 35.51741528 4.31919596 38.34040202 0 40.5 C-3.4074585 41.06790975 -4.98436529 40.59651249 -8 39 C-8.350625 39.515625 -8.70125 40.03125 -9.0625 40.5625 C-11 42 -11 42 -14.6875 41.6875 C-15.780625 41.460625 -16.87375 41.23375 -18 41 C-19.1875 38.3125 -19.1875 38.3125 -20 35 C-19.03567924 33.31243867 -18.03789581 31.64333504 -17 30 C-17.86649466 28.01669827 -17.86649466 28.01669827 -19 26 C-19.07068011 22.81939512 -18.70828264 20.82998755 -16.61328125 18.375 C-15.41838702 17.21501279 -14.20629268 16.07256502 -12.98046875 14.9453125 C-10.12027666 12.13589305 -7.83892359 8.95541242 -5.48046875 5.72265625 C-4.99191406 5.15417969 -4.50335938 4.58570312 -4 4 C-3.34 4 -2.68 4 -2 4 C-1.34 2.68 -0.68 1.36 0 0 Z " fill="#BA1E2F" transform="translate(86,94)"/>
<path d="M0 0 C4.10447392 0.51776621 5.95699523 2.64627444 8.75 5.5625 C9.94882813 6.80193359 9.94882813 6.80193359 11.171875 8.06640625 C11.77515625 8.70449219 12.3784375 9.34257813 13 10 C14.71598381 8.29379387 16.40204673 6.5735868 18.0625 4.8125 C20 3 20 3 22 3 C22 2.34 22 1.68 22 1 C22.99 0.67 23.98 0.34 25 0 C28.74019413 2.14660947 32.23814824 5.02211562 33.8125 9.109375 C34.38047881 12.88643411 34.23094969 15.85042397 32 19 C32.99 19.33 33.98 19.66 35 20 C35.75 22.75 35.75 22.75 36 26 C34.4375 28.4375 34.4375 28.4375 32 30 C28.3014996 29.85205998 26.64194427 29.64194427 24 27 C23.46375 27.350625 22.9275 27.70125 22.375 28.0625 C19.17328648 29.32633428 17.29417633 28.89217276 14 28 C11.625 26.5625 11.625 26.5625 10 25 C10 24.34 10 23.68 10 23 C9.4225 22.73832031 8.845 22.47664063 8.25 22.20703125 C2.55594127 19.15240599 -2.22957712 14.18433147 -6 9 C-5 7 -4 5 -3 3 C-2.34 3 -1.68 3 -1 3 C-0.67 2.01 -0.34 1.02 0 0 Z M27 18 C31 19 31 19 31 19 Z M25 19 C25.33 19.66 25.66 20.32 26 21 C26.33 20.34 26.66 19.68 27 19 C26.34 19 25.68 19 25 19 Z " fill="#08B3A2" transform="translate(94,105)"/>
<path d="M0 0 C4.10098882 -0.5706127 6.64846631 -0.87620616 10.18945312 1.41943359 C12.47554345 3.4261929 14.62094808 5.51495945 16.75 7.6875 C17.49121094 8.40873047 18.23242188 9.12996094 18.99609375 9.87304688 C22.58634641 13.40206542 25.97465746 16.96355614 29 21 C27.49776416 25.20626034 24.71449966 26.73900021 21 29 C17.39753524 26.22095576 14.17317412 23.25893558 11 20 C10.34 19.34 9.68 18.68 9 18 C8.59007813 18.5053125 8.18015625 19.010625 7.7578125 19.53125 C7.21898438 20.1809375 6.68015625 20.830625 6.125 21.5 C5.59132813 22.1496875 5.05765625 22.799375 4.5078125 23.46875 C4.01023437 23.9740625 3.51265625 24.479375 3 25 C2.34 25 1.68 25 1 25 C1 25.66 1 26.32 1 27 C-0.76953125 27.70703125 -0.76953125 27.70703125 -3 28 C-4.88671875 26.63671875 -4.88671875 26.63671875 -6.6875 24.6875 C-7.28949219 24.05199219 -7.89148438 23.41648437 -8.51171875 22.76171875 C-11.46683037 19.26367323 -11.08295782 16.47972211 -11 12 C-9.741875 11.690625 -8.48375 11.38125 -7.1875 11.0625 C-4.33850176 10.03383515 -3.26743091 9.4913063 -1.80078125 6.796875 C-1.0736706 4.54105854 -0.46747675 2.32277512 0 0 Z " fill="#226BA4" transform="translate(79,73)"/>
<path d="M0 0 C-0.477976 4.30178403 -2.96651909 6.09840957 -6 9 C-7.26358594 10.38354663 -8.5130823 11.78006073 -9.75 13.1875 C-10.34296875 13.86167969 -10.9359375 14.53585938 -11.546875 15.23046875 C-13.06584716 16.94668032 -13.06584716 16.94668032 -14 19 C-13.34 19 -12.68 19 -12 19 C-9.875 20.875 -9.875 20.875 -8 23 C-8 23.66 -8 24.32 -8 25 C-7.01 25.33 -6.02 25.66 -5 26 C-5 26.66 -5 27.32 -5 28 C-3.68 28.66 -2.36 29.32 -1 30 C-1 31.32 -1 32.64 -1 34 C-9.04393448 31.66098359 -15.99184488 28.27140603 -22.75 23.3125 C-28.46042781 19.24931098 -32.74939994 18.70138506 -39.5625 18.8125 C-40.31724609 18.81314453 -41.07199219 18.81378906 -41.84960938 18.81445312 C-45.39541407 18.84256964 -48.58945316 19.04827468 -52 20 C-51.64010575 17.27424356 -51.24183438 16.21281425 -49.14453125 14.3671875 C-48.37496094 13.87476563 -47.60539062 13.38234375 -46.8125 12.875 C-46.05582031 12.37742187 -45.29914063 11.87984375 -44.51953125 11.3671875 C-38.99781655 8.37090821 -34.00603787 7.76000521 -27.8125 7.625 C-19.56924749 7.29591029 -12.48401962 5.80586856 -5.390625 1.3671875 C-3 0 -3 0 0 0 Z " fill="#CBE015" transform="translate(155,43)"/>
<path d="M0 0 C0.66 0.33 1.32 0.66 2 1 C2.37890625 3.15234375 2.37890625 3.15234375 2.5625 5.9375 C2.6346875 6.92234375 2.706875 7.9071875 2.78125 8.921875 C2.8534375 9.93765625 2.925625 10.9534375 3 12 C3.18061917 13.89650125 3.36757702 15.79241549 3.5625 17.6875 C3.68818359 18.93080078 3.68818359 18.93080078 3.81640625 20.19921875 C3.87699219 20.79347656 3.93757813 21.38773438 4 22 C10.43311296 22.09507063 16.65758005 22.15316726 23 21 C23 22.32 23 23.64 23 25 C18.02773158 29.97226842 9.89294432 31.0815842 3.19628906 32.40161133 C-7.24328146 34.47477061 -13.31630918 36.84057097 -19.5 45.875 C-20.34767749 47.24120361 -21.18642206 48.61321942 -22 50 C-22.66 49.67 -23.32 49.34 -24 49 C-23.39891424 43.34979382 -21.92471317 38.33835539 -20 33 C-19.34 33 -18.68 33 -18 33 C-17.938125 32.443125 -17.87625 31.88625 -17.8125 31.3125 C-16.6615012 28.03658033 -14.47935065 26.42425397 -12 24 C-7.95106343 19.37264392 -5.3788589 15.09358766 -3.65625 9.1875 C-2.6994222 5.99807399 -1.35724856 3.03765154 0 0 Z " fill="#84C932" transform="translate(95,20)"/>
<path d="M0 0 C0.50414907 6.8060125 -0.78488281 11.95852161 -4 18 C-6.3125 20.625 -6.3125 20.625 -9 23 C-15.81621384 30.04649133 -19.55535049 36.83981961 -22.2890625 46.21484375 C-23 48 -23 48 -25 49 C-26.17469444 46.65061112 -26.20034889 45.04926795 -26.31640625 42.4296875 C-26.35830078 41.53378906 -26.40019531 40.63789063 -26.44335938 39.71484375 C-26.48267578 38.77769531 -26.52199219 37.84054688 -26.5625 36.875 C-26.60568359 35.93011719 -26.64886719 34.98523438 -26.69335938 34.01171875 C-26.79959072 31.67462908 -26.90163176 29.3374317 -27 27 C-28.27617188 27.09539062 -29.55234375 27.19078125 -30.8671875 27.2890625 C-32.53642112 27.4015951 -34.20569415 27.51354407 -35.875 27.625 C-37.13763672 27.72167969 -37.13763672 27.72167969 -38.42578125 27.8203125 C-39.63427734 27.89765625 -39.63427734 27.89765625 -40.8671875 27.9765625 C-41.61081543 28.02893066 -42.35444336 28.08129883 -43.12060547 28.13525391 C-45 28 -45 28 -47 26 C-45.46244457 22.92488914 -43.12781627 22.75437915 -39.9375 21.625 C-39.31987793 21.40513428 -38.70225586 21.18526855 -38.06591797 20.95874023 C-33.98749216 19.55184141 -29.90697218 18.46877486 -25.69873047 17.52783203 C-17.72102254 15.73768471 -11.39493894 13.78098636 -6.48828125 6.87109375 C-5.62197698 5.48351757 -4.79035322 4.07320084 -4.0078125 2.63671875 C-2.95492853 0.92680254 -2.13601994 0 0 0 Z " fill="#E02027" transform="translate(123,136)"/>
<path d="M0 0 C5.97340855 0.4448979 9.72920983 1.57610496 14.9375 4.75 C15.54231201 5.10908447 16.14712402 5.46816895 16.77026367 5.83813477 C19.39449104 7.39671801 21.99292927 8.99561016 24.5859375 10.60546875 C33.57853316 15.98524966 40.98693326 15.26463752 51 13 C51.495 14.485 51.495 14.485 52 16 C50.31768531 16.967407 48.62884803 17.92347446 46.9375 18.875 C45.99777344 19.40867188 45.05804688 19.94234375 44.08984375 20.4921875 C38.5669293 23.18731389 33.34094508 24.16478163 27.28686523 24.58276367 C18.58636704 25.18604753 12.09724268 26.65283742 4.37109375 30.85546875 C3.58863281 31.23316406 2.80617187 31.61085937 2 32 C1.34 31.67 0.68 31.34 0 31 C4.66666667 25.66666667 9.33333333 20.33333333 14 15 C13.34 14.38125 12.68 13.7625 12 13.125 C10 11 10 11 10 9 C8.02 8.34 6.04 7.68 4 7 C4 6.34 4 5.68 4 5 C3.34 4.505 2.68 4.01 2 3.5 C1.34 3.005 0.68 2.51 0 2 C0 1.34 0 0.68 0 0 Z " fill="#BF171C" transform="translate(40,130)"/>
<path d="M0 0 C3.85063416 1.56877688 6.15180131 4.0161728 9 7 C10.10155944 8.10676776 11.20573224 9.21094056 12.3125 10.3125 C13.199375 11.199375 14.08625 12.08625 15 13 C19.6662591 11.19860695 22.28497053 7.52080696 25.46484375 3.8125 C26.60658146 2.50864243 27.79986534 1.2503145 29 0 C29.66 0 30.32 0 31 0 C29.47101227 9.32682517 25.26499361 16.47303678 20.25 24.375 C15.46234823 31.99521745 15.07213039 38.31823429 17 47.0625 C17.32367163 48.37741598 17.65339376 49.69094252 18 51 C16.1640625 50.7734375 16.1640625 50.7734375 14 50 C8.145708 42.14037041 7.18762495 32.46677636 6.625 23 C6.1047977 15.74554252 4.04497274 9.06745911 0 3 C0 2.01 0 1.02 0 0 Z " fill="#3870C0" transform="translate(39,46)"/>
<path d="M0 0 C1.84618297 3.37776975 2.95263196 6.82013334 4.0625 10.5 C4.40410156 11.6240625 4.74570312 12.748125 5.09765625 13.90625 C5.61602401 15.68351088 6.1026913 17.47221824 6.49609375 19.28125 C6.92154217 21.24128104 6.92154217 21.24128104 9 23 C9.309375 23.78375 9.61875 24.5675 9.9375 25.375 C10.99170758 27.97951284 12.31473557 29.77851507 14 32 C14 32.66 14 33.32 14 34 C14.515625 34.226875 15.03125 34.45375 15.5625 34.6875 C18.92403127 36.4975553 21.92911144 38.73996404 25 41 C22 43 22 43 19.58203125 42.75 C12.82872134 40.92117701 8.28907142 38.50476045 3 34 C2.11570312 33.319375 1.23140625 32.63875 0.3203125 31.9375 C-6.8668202 26.39953939 -6.8668202 26.39953939 -8 23 C-8.66 22.34 -9.32 21.68 -10 21 C-10 20.34 -10 19.68 -10 19 C-6.7 19 -3.4 19 0 19 C-0.08378906 17.71222656 -0.16757812 16.42445312 -0.25390625 15.09765625 C-0.35704621 13.41928773 -0.45989584 11.74090136 -0.5625 10.0625 C-0.61857422 9.21236328 -0.67464844 8.36222656 -0.73242188 7.48632812 C-0.80493164 6.27299805 -0.80493164 6.27299805 -0.87890625 5.03515625 C-0.9260376 4.2862915 -0.97316895 3.53742676 -1.02172852 2.76586914 C-1 1 -1 1 0 0 Z " fill="#70CDE8" transform="translate(39,86)"/>
<path d="M0 0 C10.53120226 -0.55212128 10.53120226 -0.55212128 15 3 C15.72316406 3.54527344 16.44632813 4.09054688 17.19140625 4.65234375 C26.4099632 11.65134445 26.4099632 11.65134445 28.3125 16 C30.3545556 19.63032106 32.19819833 20.47927933 36 22 C32.99382731 25.00617269 30.17618402 24.59585316 26 25 C25.01 27.97 24.02 30.94 23 34 C22.34 33.67 21.68 33.34 21 33 C20.55078125 30.34765625 20.55078125 30.34765625 20.3125 27.0625 C20.22613281 25.98097656 20.13976562 24.89945313 20.05078125 23.78515625 C20 21 20 21 21 19 C20.01 19 19.02 19 18 19 C16.64560332 16.29120665 16.93498549 13.99066732 17 11 C16.01 11.33 15.02 11.66 14 12 C10.93568037 10.50924991 8.44945788 8.57255213 5.875 6.375 C3.1832913 3.86087528 3.1832913 3.86087528 0 3 C0 2.01 0 1.02 0 0 Z " fill="#F8C00C" transform="translate(131,77)"/>
<path d="M0 0 C0.33 0.66 0.66 1.32 1 2 C0.67 2.99 0.34 3.98 0 5 C1.98 5 3.96 5 6 5 C6 4.34 6 3.68 6 3 C8.49361571 4.20381448 10.68143083 5.45428722 13 7 C13.625 10 13.625 10 14 13 C14.33 13.66 14.66 14.32 15 15 C14.01 16.32 13.02 17.64 12 19 C10.824375 18.690625 10.824375 18.690625 9.625 18.375 C8.325625 18.189375 8.325625 18.189375 7 18 C4.4345406 20.5654594 4.45953913 22.47686668 4 26 C3.34 26 2.68 26 2 26 C1.67 27.65 1.34 29.3 1 31 C-1.375 31.1875 -1.375 31.1875 -4 31 C-6 28 -6 28 -5.75 25.375 C-5.5025 24.59125 -5.255 23.8075 -5 23 C-4.34 22.67 -3.68 22.34 -3 22 C-0.52176842 17.90138623 0.72990678 14.79653027 0 10 C-0.680625 9.319375 -1.36125 8.63875 -2.0625 7.9375 C-2.701875 7.298125 -3.34125 6.65875 -4 6 C-3.75 3.25 -3.75 3.25 -3 1 C-2.01 0.67 -1.02 0.34 0 0 Z " fill="#F88006" transform="translate(109,79)"/>
<path d="M0 0 C0.99 0 1.98 0 3 0 C3 0.99 3 1.98 3 3 C3.99 3 4.98 3 6 3 C5.34 5.31 4.68 7.62 4 10 C3.34 10 2.68 10 2 10 C2 11.65 2 13.3 2 15 C1.01 15.33 0.02 15.66 -1 16 C-0.95875 17.11375 -0.9175 18.2275 -0.875 19.375 C-1 23 -1 23 -3 25 C-3 24.01 -3 23.02 -3 22 C-3.66 21.67 -4.32 21.34 -5 21 C-5.4140625 18.05859375 -5.4140625 18.05859375 -5.625 14.4375 C-5.69976562 13.23996094 -5.77453125 12.04242188 -5.8515625 10.80859375 C-5.90054688 9.88175781 -5.94953125 8.95492187 -6 8 C-7.27617188 8.09539062 -8.55234375 8.19078125 -9.8671875 8.2890625 C-11.53642112 8.4015951 -13.20569415 8.51354407 -14.875 8.625 C-16.13763672 8.72167969 -16.13763672 8.72167969 -17.42578125 8.8203125 C-18.23144531 8.871875 -19.03710938 8.9234375 -19.8671875 8.9765625 C-20.61081543 9.02893066 -21.35444336 9.08129883 -22.12060547 9.13525391 C-24 9 -24 9 -26 7 C-24.35369302 3.70738605 -21.22498269 3.10688986 -17.90625 1.82421875 C-12.01016409 0.15207611 -5.88101666 0.3177557 0 2 C0 1.34 0 0.68 0 0 Z " fill="#EA1D24" transform="translate(102,155)"/>
<path d="M0 0 C4.82589474 0.32903828 7.66023474 1.46939101 11 5 C12.43589744 10.12820513 12.43589744 10.12820513 11 13 C10.34 13 9.68 13 9 13 C8.690625 13.639375 8.38125 14.27875 8.0625 14.9375 C7 17 7 17 6 18 C1.68581231 18.49779089 -0.33461577 18.46718467 -3.9375 15.9375 C-6 13 -6 13 -6.625 9.5 C-5.85210991 5.17181549 -4.33130443 3.76254514 -1 1 C-0.67 0.67 -0.34 0.34 0 0 Z " fill="#CCE20E" transform="translate(151,51)"/>
<path d="M0 0 C5.97340855 0.4448979 9.72920983 1.57610496 14.9375 4.75 C15.54231201 5.10908447 16.14712402 5.46816895 16.77026367 5.83813477 C19.39449104 7.39671801 21.99292927 8.99561016 24.5859375 10.60546875 C33.57853316 15.98524966 40.98693326 15.26463752 51 13 C51.495 14.485 51.495 14.485 52 16 C40.66287016 22.70387244 40.66287016 22.70387244 34 23 C36.22189824 20.77810176 38.08482708 20.07401108 41 19 C41 18.67 41 18.34 41 18 C40.24074219 17.95101562 39.48148438 17.90203125 38.69921875 17.8515625 C37.70535156 17.77679688 36.71148437 17.70203125 35.6875 17.625 C34.70136719 17.55539063 33.71523437 17.48578125 32.69921875 17.4140625 C30 17 30 17 27 15 C25.28616279 14.41162754 23.55480159 13.87280046 21.8125 13.375 C20.91144531 13.11460937 20.01039062 12.85421875 19.08203125 12.5859375 C18.39496094 12.39257812 17.70789063 12.19921875 17 12 C17 13.65 17 15.3 17 17 C14.26077169 15.17384779 12.20035956 13.42798296 10 11 C10 10.34 10 9.68 10 9 C8.02 8.34 6.04 7.68 4 7 C4 6.34 4 5.68 4 5 C3.34 4.505 2.68 4.01 2 3.5 C1.34 3.005 0.68 2.51 0 2 C0 1.34 0 0.68 0 0 Z " fill="#9E1F2B" transform="translate(40,130)"/>
<path d="M0 0 C0.66 0.33 1.32 0.66 2 1 C2.37890625 3.08203125 2.37890625 3.08203125 2.5625 5.8125 C2.63726562 6.79605469 2.71203125 7.77960937 2.7890625 8.79296875 C2.93309862 10.98285122 3.0735661 13.1729706 3.2109375 15.36328125 C3.28570312 16.43964844 3.36046875 17.51601563 3.4375 18.625 C3.49808594 19.62789062 3.55867188 20.63078125 3.62109375 21.6640625 C3.74613281 22.43492188 3.87117188 23.20578125 4 24 C4.66 24.33 5.32 24.66 6 25 C5.34 26.32 4.68 27.64 4 29 C3.67 28.01 3.34 27.02 3 26 C2.34 26 1.68 26 1 26 C1 26.99 1 27.98 1 29 C-2 30 -2 30 -5 29 C-5.33 29.66 -5.66 30.32 -6 31 C-7.98 30.67 -9.96 30.34 -12 30 C-11.67 28.68 -11.34 27.36 -11 26 C-10.01 26 -9.02 26 -8 26 C-7.74476562 24.92685547 -7.74476562 24.92685547 -7.484375 23.83203125 C-2.23076923 2.23076923 -2.23076923 2.23076923 0 0 Z " fill="#80CB29" transform="translate(95,20)"/>
<path d="M0 0 C2.2421875 0.7734375 2.2421875 0.7734375 4.2421875 2.7734375 C5.41103947 7.1566324 5.27111424 9.71558401 3.2421875 13.7734375 C2.5821875 13.7734375 1.9221875 13.7734375 1.2421875 13.7734375 C1.2421875 14.4334375 1.2421875 15.0934375 1.2421875 15.7734375 C-6.67251838 16.38226103 -6.67251838 16.38226103 -10.3203125 14.3359375 C-12.47540832 10.49424495 -12.49639689 7.07137006 -11.7578125 2.7734375 C-8.99887264 -2.61903587 -5.11234105 -1.16810166 0 0 Z " fill="#86C73B" transform="translate(110.7578125,25.2265625)"/>
<path d="M0 0 C1.796875 0.140625 1.796875 0.140625 4 1 C5.703125 3.546875 5.703125 3.546875 7.25 6.75 C7.77078125 7.79671875 8.2915625 8.8434375 8.828125 9.921875 C9.96253306 12.90158684 10.25623922 14.85524596 10 18 C7.87491756 14.81237635 7.4979837 12.73487777 7 9 C6.34 9 5.68 9 5 9 C4.67 8.01 4.34 7.02 4 6 C3.96261719 6.88300781 3.92523438 7.76601562 3.88671875 8.67578125 C3.45719398 16.51671376 2.33363041 23.51716335 0 31 C-0.57693373 33.11795411 -1 34.80526927 -1 37 C0.32 37.33 1.64 37.66 3 38 C-0.75 41 -0.75 41 -3 41 C-3.28875 41.598125 -3.5775 42.19625 -3.875 42.8125 C-5 45 -5 45 -7 48 C-7.66 48 -8.32 48 -9 48 C-9 48.99 -9 49.98 -9 51 C-11.475 51.495 -11.475 51.495 -14 52 C-13.61916483 45.33538459 -10.9309103 40.64655279 -7.625 34.9375 C-6.63711671 33.19712748 -5.65011481 31.45625431 -4.6640625 29.71484375 C-4.20128906 28.89765869 -3.73851562 28.08047363 -3.26171875 27.23852539 C0.33094878 21.08886265 0.33094878 21.08886265 1.25 14.1875 C1.22421875 13.33800781 1.1984375 12.48851563 1.171875 11.61328125 C0.91572091 7.7185748 0.49951801 3.87126458 0 0 Z " fill="#DE8939" transform="translate(138,108)"/>
<path d="M0 0 C3.37762534 0.7840916 4.53313985 1.08074979 6.5 3.8125 C7.92041821 6.65333641 7.81452272 8.66727278 7.5 11.8125 C4.82106497 15.11651987 2.8766206 16.66286733 -1.375 17.125 C-4.5 16.8125 -4.5 16.8125 -6.8125 15.125 C-8.74496181 12.4768116 -9.42190579 11.09245671 -9.5 7.8125 C-7.48113237 2.66438754 -5.95349573 -0.31893727 0 0 Z " fill="#EC1B26" transform="translate(88.5,164.1875)"/>
<path d="M0 0 C4.10447392 0.51776621 5.95699523 2.64627444 8.75 5.5625 C9.94882813 6.80193359 9.94882813 6.80193359 11.171875 8.06640625 C11.77515625 8.70449219 12.3784375 9.34257813 13 10 C12.67 10.99 12.34 11.98 12 13 C9.525 12.505 9.525 12.505 7 12 C6.3185177 13.89179203 6.3185177 13.89179203 6 16 C6.66 16.66 7.32 17.32 8 18 C7.67 18.66 7.34 19.32 7 20 C7.99 20 8.98 20 10 20 C10.721875 20.969375 11.44375 21.93875 12.1875 22.9375 C13.76994303 25.00050088 14.58123419 25.87623836 17.1015625 26.62109375 C19.05889606 26.84587587 21.03093262 26.93325195 23 27 C20 29 20 29 17.0625 28.8125 C13.98118913 27.99500936 12.28350644 27.19567927 10 25 C10 24.34 10 23.68 10 23 C9.4225 22.73832031 8.845 22.47664063 8.25 22.20703125 C2.55594127 19.15240599 -2.22957712 14.18433147 -6 9 C-5 7 -4 5 -3 3 C-2.34 3 -1.68 3 -1 3 C-0.67 2.01 -0.34 1.02 0 0 Z " fill="#0DB2A2" transform="translate(94,105)"/>
<path d="M0 0 C2.875 2.0625 2.875 2.0625 5 5 C5.5625 8.5625 5.5625 8.5625 5 12 C3.20171456 14.44053024 1.81043868 15.63399544 -0.9375 16.875 C-4.41845657 17.08596706 -6.95043546 15.82182884 -9.65625 13.703125 C-11 12 -11 12 -11.21484375 9.84375 C-10.47347911 3.57869669 -10.47347911 3.57869669 -8.3125 0.9375 C-5.2130478 -0.31903468 -3.31935931 -0.54193621 0 0 Z " fill="#BF171A" transform="translate(44,137)"/>
<path d="M0 0 C0.66 0.33 1.32 0.66 2 1 C2 1.99 2 2.98 2 4 C2.66 4 3.32 4 4 4 C4.12117187 4.63808594 4.24234375 5.27617188 4.3671875 5.93359375 C4.53476563 6.75988281 4.70234375 7.58617188 4.875 8.4375 C5.11863281 9.67306641 5.11863281 9.67306641 5.3671875 10.93359375 C5.68042969 11.95646484 5.68042969 11.95646484 6 13 C6.66 13.33 7.32 13.66 8 14 C7.67 14.33 7.34 14.66 7 15 C6.92726551 18.59581137 7.0039705 22.18143785 7.0625 25.77734375 C7 29 7 29 6 31 C5.34 31 4.68 31 4 31 C4 30.34 4 29.68 4 29 C3.01 29 2.02 29 1 29 C1 29.99 1 30.98 1 32 C-0.65 32 -2.3 32 -4 32 C-4.625 29.6875 -4.625 29.6875 -5 27 C-4.01 25.515 -4.01 25.515 -3 24 C-0.76241669 16.10264715 -0.40852723 8.15979392 0 0 Z " fill="#F18318" transform="translate(141,113)"/>
<path d="M0 0 C1.91015625 0.48046875 1.91015625 0.48046875 4.47265625 2.54296875 C6.3464113 6.37194647 6.03978326 8.41381151 4.91015625 12.48046875 C3.23331223 15.1281172 2.05876764 15.4352392 -0.96484375 16.35546875 C-4.69116086 16.50452143 -6.17144022 15.73180862 -9.08984375 13.48046875 C-10.51646594 10.62722438 -10.40018243 8.64592326 -10.08984375 5.48046875 C-7.60245173 0.71296737 -5.15212644 -0.35631529 0 0 Z " fill="#3771C1" transform="translate(57.08984375,38.51953125)"/>
<path d="M0 0 C2.85194898 2.93837168 3 4.53597436 3 8.625 C2 12 2 12 -0.125 14 C-3.8464391 15.2944136 -6.21463932 14.9999066 -10 14 C-12.28062828 10.57905758 -12.21925007 9.31812778 -12.125 5.3125 C-12.10695312 4.31863281 -12.08890625 3.32476562 -12.0703125 2.30078125 C-12.04710937 1.54152344 -12.02390625 0.78226562 -12 0 C-7.82395812 -1.21450882 -4.17962469 -1.27513973 0 0 Z " fill="#F7BF0A" transform="translate(173,105)"/>
<path d="M0 0 C2.375 1.625 2.375 1.625 4 4 C4.61195145 7.6717087 4.48706506 9.28813568 2.375 12.375 C-0.71186432 14.48706506 -2.3282913 14.61195145 -6 14 C-8.375 12.1875 -8.375 12.1875 -10 10 C-10 9.01 -10 8.02 -10 7 C-10.66 7 -11.32 7 -12 7 C-11.8125 5.1875 -11.8125 5.1875 -11 3 C-7.39932881 0.11946304 -4.56526387 -0.67993292 0 0 Z " fill="#ED841E" transform="translate(143,152)"/>
<path d="M0 0 C3 1 3 1 4.31640625 3.22265625 C7.63875772 10.79428484 10.42129297 17.57414063 10 26 C9.01 25.34 8.02 24.68 7 24 C6.55859375 21.43359375 6.55859375 21.43359375 6.4375 18.4375 C6.35410416 15.52225366 6.35410416 15.52225366 6 13 C5.34 12.67 4.68 12.34 4 12 C3.34 9.69 2.68 7.38 2 5 C2 10.94 2 16.88 2 23 C-1.96 23.495 -1.96 23.495 -6 24 C-5.67 25.65 -5.34 27.3 -5 29 C-10.44876003 27.27933894 -15.71169451 25.15294651 -21 23 C-19 21 -19 21 -16.375 20.875 C-15.59125 20.91625 -14.8075 20.9575 -14 21 C-14.33 21.99 -14.66 22.98 -15 24 C-14.195625 23.525625 -13.39125 23.05125 -12.5625 22.5625 C-8.33060071 20.70640382 -4.56827922 20.29440022 0 20 C0.25069913 17.62570704 0.25069913 17.62570704 0 15 C-0.495 14.54625 -0.99 14.0925 -1.5 13.625 C-3 12 -3 12 -3.1875 8.3125 C-3.125625 7.219375 -3.06375 6.12625 -3 5 C-2.67 5 -2.34 5 -2 5 C-1.67 6.65 -1.34 8.3 -1 10 C-0.67 6.7 -0.34 3.4 0 0 Z " fill="#77C8D7" transform="translate(37,82)"/>
<path d="M0 0 C4.83256305 0.41421969 6.82679218 2.46413986 10 6 C9.690625 6.5775 9.38125 7.155 9.0625 7.75 C7.92499553 9.90791183 7.92499553 9.90791183 7.625 12.0625 C6.53553814 15.43983175 3.75615219 16.60091968 0.75 18.1875 C0.1725 18.455625 -0.405 18.72375 -1 19 C-1.33 18.34 -1.66 17.68 -2 17 C-1.34 17 -0.68 17 0 17 C0.28875 16.21625 0.5775 15.4325 0.875 14.625 C2 12 2 12 4 10 C3.01 9.67 2.02 9.34 1 9 C0.3125 6.9375 0.3125 6.9375 0 5 C-5.54213555 9.60645032 -10.36314168 14.48953069 -15 20 C-15.33 20.33 -15.66 20.66 -16 21 C-16.33856828 26.32673036 -16.33856828 26.32673036 -14 31 C-14.7115625 31.556875 -14.7115625 31.556875 -15.4375 32.125 C-17.52205802 34.62646962 -17.64621491 36.81593418 -18 40 C-19.1875 38.375 -19.1875 38.375 -20 36 C-19 34 -18 32 -17 30 C-17.8499169 27.96672915 -17.8499169 27.96672915 -19 26 C-19.07068011 22.81939512 -18.70828264 20.82998755 -16.61328125 18.375 C-15.41838702 17.21501279 -14.20629268 16.07256502 -12.98046875 14.9453125 C-10.12027666 12.13589305 -7.83892359 8.95541242 -5.48046875 5.72265625 C-4.99191406 5.15417969 -4.50335938 4.58570312 -4 4 C-3.34 4 -2.68 4 -2 4 C-1.34 2.68 -0.68 1.36 0 0 Z " fill="#892B3B" transform="translate(86,94)"/>
<path d="M0 0 C3.37177797 1.39521847 5.25017709 2.76282761 7 6 C7.04241723 8.33294775 7.04092937 10.66702567 7 13 C7.47373047 14.09054688 7.47373047 14.09054688 7.95703125 15.203125 C9.34042239 18.91289299 9.45646832 22.38360521 9.625 26.3125 C9.66367187 27.05306641 9.70234375 27.79363281 9.7421875 28.55664062 C9.83581705 30.37071309 9.91896851 32.18532116 10 34 C10.66 33.34 11.32 32.68 12 32 C12.66 33.32 13.32 34.64 14 36 C14 34.02 14 32.04 14 30 C14.66 30 15.32 30 16 30 C15.96519531 31.14275391 15.96519531 31.14275391 15.9296875 32.30859375 C15.81435162 38.90745394 16.29935867 44.62259502 18 51 C16.1640625 50.7734375 16.1640625 50.7734375 14 50 C8.145708 42.14037041 7.18762495 32.46677636 6.625 23 C6.1047977 15.74554252 4.04497274 9.06745911 0 3 C0 2.01 0 1.02 0 0 Z " fill="#366DB3" transform="translate(39,46)"/>
<path d="M0 0 C0.33 0.66 0.66 1.32 1 2 C2.65 1.67 4.3 1.34 6 1 C7.13062453 6.15062288 7.41817394 11.16365212 5 16 C3.35 16 1.7 16 0 16 C-0.33 15.01 -0.66 14.02 -1 13 C-1.99 12.67 -2.98 12.34 -4 12 C-4 11.34 -4 10.68 -4 10 C-4.99 10 -5.98 10 -7 10 C-8.125 7.75 -8.125 7.75 -9 5 C-8.125 2.6875 -8.125 2.6875 -7 1 C-6.67 1.66 -6.34 2.32 -6 3 C-2.75016865 1.91215032 -2.75016865 1.91215032 0 0 Z " fill="#05B5A6" transform="translate(108,115)"/>
<path d="M0 0 C0 3 0 3 -2.20703125 5.32421875 C-3.12871094 6.20722656 -4.05039063 7.09023437 -5 8 C-7.38264006 10.88958476 -9.6973953 13.82508948 -12.01171875 16.76953125 C-12.66785156 17.50558594 -13.32398437 18.24164063 -14 19 C-14.66 19 -15.32 19 -16 19 C-16.33 19.99 -16.66 20.98 -17 22 C-18.32 21.67 -19.64 21.34 -21 21 C-21 20.34 -21 19.68 -21 19 C-21.66 19 -22.32 19 -23 19 C-23 18.34 -23 17.68 -23 17 C-24.32 16.34 -25.64 15.68 -27 15 C-25.59023295 11.96147295 -23.91129772 9.4060405 -21.875 6.75 C-21.33617188 6.04359375 -20.79734375 5.3371875 -20.2421875 4.609375 C-19.83226563 4.07828125 -19.42234375 3.5471875 -19 3 C-18.34 3.33 -17.68 3.66 -17 4 C-17.99 5.98 -18.98 7.96 -20 10 C-20.66 10 -21.32 10 -22 10 C-22.08226668 13.04386724 -21.97608217 15.07175348 -21 18 C-19.35 18 -17.7 18 -16 18 C-16 16.02 -16 14.04 -16 12 C-15.01 12.33 -14.02 12.66 -13 13 C-13.12375 11.6078125 -13.12375 11.6078125 -13.25 10.1875 C-13 7 -13 7 -11 5.125 C-10.34 4.75375 -9.68 4.3825 -9 4 C-7.68 4.66 -6.36 5.32 -5 6 C-4.67 5.01 -4.34 4.02 -4 3 C-1.9375 1.3125 -1.9375 1.3125 0 0 Z " fill="#E98620" transform="translate(126,92)"/>
<path d="M0 0 C0.5882145 7.94089573 -1.16672754 14.64480892 -6.375 20.8125 C-7.674375 21.8953125 -7.674375 21.8953125 -9 23 C-9.81791016 23.69609375 -9.81791016 23.69609375 -10.65234375 24.40625 C-12.08703993 25.62152206 -13.54177032 26.81306886 -15 28 C-14.34 26.35 -13.68 24.7 -13 23 C-12.34 23 -11.68 23 -11 23 C-11 21.35 -11 19.7 -11 18 C-10.01 18 -9.02 18 -8 18 C-8 17.01 -8 16.02 -8 15 C-8.66 15 -9.32 15 -10 15 C-10 15.66 -10 16.32 -10 17 C-12.97 17 -15.94 17 -19 17 C-17.38040319 15.92026879 -15.75970267 14.84214778 -14.1328125 13.7734375 C-9.547071 10.57947746 -6.68569574 7.55241351 -4.0078125 2.63671875 C-2.95492853 0.92680254 -2.13601994 0 0 0 Z " fill="#D02325" transform="translate(123,136)"/>
<path d="M0 0 C-0.47424857 4.26823714 -2.95761403 6.17492731 -6 9 C-6.474375 9.5775 -6.94875 10.155 -7.4375 10.75 C-9.75538758 12.60431006 -12.1086184 12.67873538 -15 13 C-15.33 11.35 -15.66 9.7 -16 8 C-16.81726563 8.32742187 -17.63453125 8.65484375 -18.4765625 8.9921875 C-22.59263124 10.16951093 -26.13044334 10.22478162 -30.375 10.125 C-31.47908203 10.11146484 -31.47908203 10.11146484 -32.60546875 10.09765625 C-34.4037888 10.07430144 -36.20193911 10.03843836 -38 10 C-35.08334179 7.08334179 -31.97256862 7.70642479 -28.0625 7.625 C-19.72016363 7.29981411 -12.57361996 5.86193584 -5.390625 1.3671875 C-3 0 -3 0 0 0 Z " fill="#D2E43F" transform="translate(155,43)"/>
<path d="M0 0 C3.58273331 1.65356922 6.80973467 3.67980703 10 6 C10 6.66 10 7.32 10 8 C10.66 8 11.32 8 12 8 C15 11.46153846 15 11.46153846 15 14 C14.01 14.495 14.01 14.495 13 15 C11.9590934 16.64142963 10.95495674 18.30712215 10 20 C9.34 19.34 8.68 18.68 8 18 C8.375 15.875 8.375 15.875 9 14 C6.80532733 12.86202158 4.72673037 11.90891012 2.375 11.125 C-0.39919994 9.81090529 -0.96368671 8.82630897 -2 6 C-1.34 5.01 -0.68 4.02 0 3 C0 2.01 0 1.02 0 0 Z " fill="#236EAA" transform="translate(90,81)"/>
<path d="M0 0 C0.66 0 1.32 0 2 0 C0.74753422 7.64004127 -2.04073714 13.38501538 -6 20 C-6.47308594 20.7940625 -6.94617187 21.588125 -7.43359375 22.40625 C-9.1477082 25.21393895 -10.66646956 27.66646956 -13 30 C-12.42515591 25.9904625 -11.16628226 23.28064567 -9 19.875 C-7.30329901 17.19127583 -6.00743074 15.02229222 -5 12 C-5.556875 12.474375 -6.11375 12.94875 -6.6875 13.4375 C-9.30115184 15.20348097 -10.85942646 15.77567332 -14 16 C-16.23828125 14.56640625 -16.23828125 14.56640625 -18.3125 12.5625 C-19.35857422 11.57443359 -19.35857422 11.57443359 -20.42578125 10.56640625 C-20.94527344 10.04949219 -21.46476562 9.53257813 -22 9 C-21.67 8.01 -21.34 7.02 -21 6 C-18.69 8.31 -16.38 10.62 -14 13 C-9.3290767 10.66453835 -6.89610573 7.73197462 -3.53515625 3.8125 C-2.39341854 2.50864243 -1.20013466 1.2503145 0 0 Z " fill="#3E6895" transform="translate(68,46)"/>
<path d="M0 0 C0.886875 0.391875 1.77375 0.78375 2.6875 1.1875 C3.0175 3.1675 3.3475 5.1475 3.6875 7.1875 C2.6975 7.6825 2.6975 7.6825 1.6875 8.1875 C1.3575 6.2075 1.0275 4.2275 0.6875 2.1875 C-1.6225 2.5175 -3.9325 2.8475 -6.3125 3.1875 C-6.9725 5.4975 -7.6325 7.8075 -8.3125 10.1875 C-8.9725 9.8575 -9.6325 9.5275 -10.3125 9.1875 C-10.3125 8.5275 -10.3125 7.8675 -10.3125 7.1875 C-11.74396378 6.77036485 -13.18308886 6.3794503 -14.625 6 C-15.42550781 5.77957031 -16.22601563 5.55914062 -17.05078125 5.33203125 C-19.36847668 4.94131205 -19.36847668 4.94131205 -21.0625 6.46875 C-22.64506437 8.64477601 -22.95568698 10.54708362 -23.3125 13.1875 C-22.8071875 13.56261719 -22.301875 13.93773438 -21.78125 14.32421875 C-16.40855489 18.55628216 -16.40855489 18.55628216 -15.875 22.0625 C-16.019375 22.76375 -16.16375 23.465 -16.3125 24.1875 C-16.6425 22.8675 -16.9725 21.5475 -17.3125 20.1875 C-18.6325 20.1875 -19.9525 20.1875 -21.3125 20.1875 C-22.875 17.875 -22.875 17.875 -24.3125 15.1875 C-25.28823866 14.16381349 -26.28442712 13.15861593 -27.3125 12.1875 C-20.82252478 2.79822314 -20.82252478 2.79822314 -16.3125 1.1875 C-14.25147728 1.35995292 -12.261002 1.69685451 -10.2265625 2.06640625 C-5.7230989 2.35131925 -4.8748004 -1.19570576 0 0 Z " fill="#EA9228" transform="translate(126.3125,70.8125)"/>
<path d="M0 0 C4.83204486 0.44949254 7.63133297 1.43883772 11 5 C12.43589744 10.12820513 12.43589744 10.12820513 11 13 C10.34 13 9.68 13 9 13 C8.690625 13.639375 8.38125 14.27875 8.0625 14.9375 C7 17 7 17 6 18 C1.68581231 18.49779089 -0.33461577 18.46718467 -3.9375 15.9375 C-6.45543836 12.35134537 -6.4206933 10.29107165 -6 6 C-5.34 5.67 -4.68 5.34 -4 5 C-4 7.64 -4 10.28 -4 13 C-0.62182575 13.84454356 1.67465243 14.10844919 5 13 C5 11.35 5 9.7 5 8 C5.66 7.67 6.32 7.34 7 7 C7 6.01 7 5.02 7 4 C4.36 3.34 1.72 2.68 -1 2 C-0.67 1.34 -0.34 0.68 0 0 Z " fill="#CFE03E" transform="translate(151,51)"/>
<path d="M0 0 C3.37762534 0.7840916 4.53313985 1.08074979 6.5 3.8125 C7.92041821 6.65333641 7.81452272 8.66727278 7.5 11.8125 C4.82106497 15.11651987 2.8766206 16.66286733 -1.375 17.125 C-4.5 16.8125 -4.5 16.8125 -6.8125 15.125 C-8.74496181 12.4768116 -9.42190579 11.09245671 -9.5 7.8125 C-7.48113237 2.66438754 -5.95349573 -0.31893727 0 0 Z M-5.3125 3.5 C-6.61144482 6.02952411 -7.28166192 7.97410496 -7.5 10.8125 C-6.51 12.2975 -6.51 12.2975 -5.5 13.8125 C-1.67387952 14.22838266 1.34876885 14.14674529 4.5 11.8125 C5.91081529 8.66529667 5.46655911 6.06365337 4.5 2.8125 C1.00404207 1.06452104 -2.36719328 0.75781788 -5.3125 3.5 Z " fill="#BE232D" transform="translate(88.5,164.1875)"/>
<path d="M0 0 C10.53120226 -0.55212128 10.53120226 -0.55212128 15 3 C15.74636719 3.556875 16.49273437 4.11375 17.26171875 4.6875 C23.8114767 9.6229534 23.8114767 9.6229534 25 12 C24.01 12 23.02 12 22 12 C21.67 11.34 21.34 10.68 21 10 C20.01 9.67 19.02 9.34 18 9 C18 8.34 18 7.68 18 7 C17.401875 6.855625 16.80375 6.71125 16.1875 6.5625 C14.43849596 6.1127561 12.71322977 5.57107659 11 5 C11.66 6.98 12.32 8.96 13 11 C10.17462936 9.80465088 8.32924926 8.43875959 5.9375 6.4375 C3.19794312 3.86462201 3.19794312 3.86462201 0 3 C0 2.01 0 1.02 0 0 Z " fill="#ECC645" transform="translate(131,77)"/>
<path d="M0 0 C2.625 0.3125 2.625 0.3125 4.5 2 C5.92624388 4.93172354 5.66730389 6.26576554 4.625 9.3125 C3.965 9.9725 3.305 10.6325 2.625 11.3125 C-0.875 11.1875 -0.875 11.1875 -4.375 10.3125 C-6 8.5625 -6 8.5625 -6.375 6.3125 C-3.51823087 0.46292511 -3.51823087 0.46292511 0 0 Z " fill="#285F89" transform="translate(71.375,71.6875)"/>
<path d="M0 0 C0 0.66 0 1.32 0 2 C-2.64 2.33 -5.28 2.66 -8 3 C-8 3.66 -8 4.32 -8 5 C-4.37 5 -0.74 5 3 5 C3 4.34 3 3.68 3 3 C4.32 2.67 5.64 2.34 7 2 C7 7.28 7 12.56 7 18 C6.67 18 6.34 18 6 18 C5.67 14.37 5.34 10.74 5 7 C3.72382812 7.09539062 2.44765625 7.19078125 1.1328125 7.2890625 C-0.53642112 7.4015951 -2.20569415 7.51354407 -3.875 7.625 C-5.13763672 7.72167969 -5.13763672 7.72167969 -6.42578125 7.8203125 C-7.63427734 7.89765625 -7.63427734 7.89765625 -8.8671875 7.9765625 C-9.61081543 8.02893066 -10.35444336 8.08129883 -11.12060547 8.13525391 C-13 8 -13 8 -15 6 C-13.61082658 3.22165316 -12.04236447 3.00357014 -9.1875 1.875 C-7.87845703 1.34519531 -7.87845703 1.34519531 -6.54296875 0.8046875 C-4 0 -4 0 0 0 Z " fill="#B42930" transform="translate(91,156)"/>
<path d="M0 0 C3.68014125 0.70771947 6.76166418 2.12896153 10 4 C10.33 4.99 10.66 5.98 11 7 C11.99 6.67 12.98 6.34 14 6 C14 6.99 14 7.98 14 9 C15.98 9 17.96 9 20 9 C20 8.34 20 7.68 20 7 C19.360625 6.731875 18.72125 6.46375 18.0625 6.1875 C16 5 16 5 15 2 C15.99 2.33 16.98 2.66 18 3 C18 3.66 18 4.32 18 5 C18.99 5.33 19.98 5.66 21 6 C21 6.66 21 7.32 21 8 C22.32 8.66 23.64 9.32 25 10 C25 11.32 25 12.64 25 14 C15.62700297 11.27451859 7.73460243 6.92437633 0 1 C0 0.67 0 0.34 0 0 Z " fill="#CEDD43" transform="translate(129,63)"/>
<path d="M0 0 C0.56332031 0.22042969 1.12664062 0.44085938 1.70703125 0.66796875 C0.90265625 1.12171875 0.09828125 1.57546875 -0.73046875 2.04296875 C-3.38153447 3.4152254 -3.38153447 3.4152254 -4.29296875 5.66796875 C0.32703125 5.66796875 4.94703125 5.66796875 9.70703125 5.66796875 C10.03703125 6.65796875 10.36703125 7.64796875 10.70703125 8.66796875 C11.36703125 8.99796875 12.02703125 9.32796875 12.70703125 9.66796875 C12.12888672 9.50570801 11.55074219 9.34344727 10.95507812 9.17626953 C7.40505037 8.37358081 3.82764891 8.52452757 0.20703125 8.54296875 C-0.93185547 8.53716797 -0.93185547 8.53716797 -2.09375 8.53125 C-5.66311331 8.53750107 -8.86028477 8.70455939 -12.29296875 9.66796875 C-11.93471314 6.88086157 -11.48760663 5.84365608 -9.3671875 3.9296875 C-8.57957031 3.41019531 -7.79195313 2.89070313 -6.98046875 2.35546875 C-6.20058594 1.82308594 -5.42070313 1.29070313 -4.6171875 0.7421875 C-2.29296875 -0.33203125 -2.29296875 -0.33203125 0 0 Z " fill="#D2E23D" transform="translate(115.29296875,53.33203125)"/>
<path d="M0 0 C0.99 0.33 1.98 0.66 3 1 C3 2.98 3 4.96 3 7 C3.66 7 4.32 7 5 7 C5.33 6.34 5.66 5.68 6 5 C6.33 6.65 6.66 8.3 7 10 C7.5775 9.7525 8.155 9.505 8.75 9.25 C9.86375 9.12625 9.86375 9.12625 11 9 C13.25 10.8125 13.25 10.8125 15 13 C15 13.66 15 14.32 15 15 C8.09668519 14.84992794 3.02535148 11.64989419 -2 7 C-2.87890625 4.87890625 -2.87890625 4.87890625 -3 3 C-1.5625 1.25 -1.5625 1.25 0 0 Z " fill="#6FD1EE" transform="translate(44,111)"/>
<path d="M0 0 C0.70125 0.15597656 1.4025 0.31195313 2.125 0.47265625 C8.17719922 1.71434386 12.93072333 2.15106971 19 1 C19.99 0.814375 20.98 0.62875 22 0.4375 C22.66 0.293125 23.32 0.14875 24 0 C24.33 0.99 24.66 1.98 25 3 C13.66287016 9.70387244 13.66287016 9.70387244 7 10 C9.22189824 7.77810176 11.08482708 7.07401108 14 6 C14 5.67 14 5.34 14 5 C13.24074219 4.95101562 12.48148438 4.90203125 11.69921875 4.8515625 C10.20841797 4.73941406 10.20841797 4.73941406 8.6875 4.625 C7.70136719 4.55539063 6.71523437 4.48578125 5.69921875 4.4140625 C3 4 3 4 0 2 C0 1.34 0 0.68 0 0 Z " fill="#A4252C" transform="translate(67,143)"/>
<path d="M0 0 C0 0.99 0 1.98 0 3 C0.99 2.67 1.98 2.34 3 2 C5.91116901 1.13428685 8.30001076 0.92642926 11.328125 1.12109375 C12.52695312 1.19360352 12.52695312 1.19360352 13.75 1.26757812 C14.575 1.32365234 15.4 1.37972656 16.25 1.4375 C17.09046875 1.48970703 17.9309375 1.54191406 18.796875 1.59570312 C20.8649352 1.72495689 22.9325222 1.86174274 25 2 C25 2.33 25 2.66 25 3 C23.77925781 3.07476562 22.55851562 3.14953125 21.30078125 3.2265625 C11.60647231 3.9557324 4.00321169 5.16003644 -4.62890625 9.85546875 C-5.41136719 10.23316406 -6.19382813 10.61085937 -7 11 C-7.66 10.67 -8.32 10.34 -9 10 C-7.8758824 8.70756532 -6.75067408 7.41607925 -5.625 6.125 C-4.99851562 5.40570313 -4.37203125 4.68640625 -3.7265625 3.9453125 C-2.52573166 2.5923402 -1.2791655 1.2791655 0 0 Z " fill="#A0232C" transform="translate(49,151)"/>
<path d="M0 0 C0.33 1.65 0.66 3.3 1 5 C2.65 4.67 4.3 4.34 6 4 C4.68 6.31 3.36 8.62 2 11 C2.66 11 3.32 11 4 11 C4.33 11.99 4.66 12.98 5 14 C1.54438548 12.46417132 -1.28213525 10.64236851 -4 8 C-4.3125 5.25 -4.3125 5.25 -4 3 C-5.65 3 -7.3 3 -9 3 C-5.87496336 0.91664224 -3.72863529 0 0 0 Z " fill="#CEE02B" transform="translate(139,51)"/>
<path d="M0 0 C1.796875 0.140625 1.796875 0.140625 4 1 C5.703125 3.546875 5.703125 3.546875 7.25 6.75 C7.77078125 7.79671875 8.2915625 8.8434375 8.828125 9.921875 C9.96253306 12.90158684 10.25623922 14.85524596 10 18 C7.87491756 14.81237635 7.4979837 12.73487777 7 9 C6.34 9 5.68 9 5 9 C4.67 8.01 4.34 7.02 4 6 C3.97421875 6.9178125 3.9484375 7.835625 3.921875 8.78125 C3.57884694 16.20312995 3.06921062 21.71121995 -1 28 C-1.66 28.33 -2.32 28.66 -3 29 C-1 24 -1 24 0.125 21.8125 C2.28917886 14.85621081 0.91630821 7.10138864 0 0 Z " fill="#CF954D" transform="translate(138,108)"/>
<path d="M0 0 C1.91015625 0.48046875 1.91015625 0.48046875 4.47265625 2.54296875 C6.3464113 6.37194647 6.03978326 8.41381151 4.91015625 12.48046875 C3.23331223 15.1281172 2.05876764 15.4352392 -0.96484375 16.35546875 C-4.69116086 16.50452143 -6.17144022 15.73180862 -9.08984375 13.48046875 C-10.51646594 10.62722438 -10.40018243 8.64592326 -10.08984375 5.48046875 C-7.60245173 0.71296737 -5.15212644 -0.35631529 0 0 Z M-6.90234375 2.60546875 C-8.64941879 5.36400828 -8.48187792 7.27885639 -8.08984375 10.48046875 C-7.11880587 12.94233454 -7.11880587 12.94233454 -5.08984375 14.48046875 C-1.963975 14.81444662 -1.963975 14.81444662 0.91015625 14.48046875 C1.24015625 13.49046875 1.57015625 12.50046875 1.91015625 11.48046875 C2.57015625 11.48046875 3.23015625 11.48046875 3.91015625 11.48046875 C4.24396439 8.10610689 4.24396439 8.10610689 3.91015625 4.48046875 C1.80188261 2.05985827 0.50670147 1.56776805 -2.65234375 1.10546875 C-5.09202483 1.31776983 -5.09202483 1.31776983 -6.90234375 2.60546875 Z " fill="#3A5E90" transform="translate(57.08984375,38.51953125)"/>
<path d="M0 0 C2.0625 2.125 2.0625 2.125 3 5 C2.8125 8.75 2.8125 8.75 2 12 C1.01 12.495 1.01 12.495 0 13 C-0.33 10.03 -0.66 7.06 -1 4 C-2.98 4 -4.96 4 -7 4 C-7 3.34 -7 2.68 -7 2 C-8.65 2.33 -10.3 2.66 -12 3 C-12 2.01 -12 1.02 -12 0 C-8.05805944 -1.47822771 -3.97770179 -1.21353614 0 0 Z " fill="#F0C328" transform="translate(173,105)"/>
<path d="M0 0 C0.66 0.33 1.32 0.66 2 1 C1.01 2.98 0.02 4.96 -1 7 C-1.66 7 -2.32 7 -3 7 C-3.08226668 10.04386724 -2.97608217 12.07175348 -2 15 C-1.071875 14.690625 -0.14375 14.38125 0.8125 14.0625 C2.875 13.375 4.9375 12.6875 7 12 C6.34 13.32 5.68 14.64 5 16 C4.34 16 3.68 16 3 16 C2.67 16.99 2.34 17.98 2 19 C0.68 18.67 -0.64 18.34 -2 18 C-2 17.34 -2 16.68 -2 16 C-2.66 16 -3.32 16 -4 16 C-4 15.34 -4 14.68 -4 14 C-5.32 13.34 -6.64 12.68 -8 12 C-6.59023295 8.96147295 -4.91129772 6.4060405 -2.875 3.75 C-2.06675781 2.69039063 -2.06675781 2.69039063 -1.2421875 1.609375 C-0.83226563 1.07828125 -0.42234375 0.5471875 0 0 Z " fill="#C3903A" transform="translate(107,95)"/>
<path d="M0 0 C3.37177797 1.39521847 5.25017709 2.76282761 7 6 C7.04241723 8.33294775 7.04092937 10.66702567 7 13 C7.32613281 13.69609375 7.65226562 14.3921875 7.98828125 15.109375 C9.46814166 19.3375476 9.2111295 23.37020555 9.125 27.8125 C9.11597656 28.69615234 9.10695313 29.57980469 9.09765625 30.49023438 C9.07419637 32.66027359 9.03832865 34.83017247 9 37 C8.67 37 8.34 37 8 37 C7.90203125 35.68386719 7.8040625 34.36773437 7.703125 33.01171875 C6.46799148 17.2437713 6.46799148 17.2437713 0 3 C0 2.01 0 1.02 0 0 Z " fill="#3B609C" transform="translate(39,46)"/>
<path d="M0 0 C1.98 0.66 3.96 1.32 6 2 C6.83089395 5.3235758 7.3884002 7.79599954 6 11 C3.5649856 13.18311636 0.95653744 14.6273219 -2 16 C-2.33 15.34 -2.66 14.68 -3 14 C-2.34 14 -1.68 14 -1 14 C-0.71125 13.21625 -0.4225 12.4325 -0.125 11.625 C1 9 1 9 3 7 C2.01 6.67 1.02 6.34 0 6 C0 4.02 0 2.04 0 0 Z " fill="#B42031" transform="translate(87,97)"/>
<path d="M0 0 C0.46450943 6.50313209 -0.67424388 10.4174808 -4 16 C-5.65 14.35 -7.3 12.7 -9 11 C-8.04801289 9.35048774 -7.08820855 7.70548492 -6.125 6.0625 C-5.59132813 5.14597656 -5.05765625 4.22945312 -4.5078125 3.28515625 C-2.34017094 0 -2.34017094 0 0 0 Z " fill="#CB2C2F" transform="translate(123,136)"/>
<path d="M0 0 C3 1 3 1 4.31640625 3.22265625 C7.63875772 10.79428484 10.42129297 17.57414063 10 26 C9.01 25.34 8.02 24.68 7 24 C6.55859375 21.43359375 6.55859375 21.43359375 6.4375 18.4375 C6.35410416 15.52225366 6.35410416 15.52225366 6 13 C5.34 12.67 4.68 12.34 4 12 C3.26924352 9.6859378 2.59861742 7.35171131 2 5 C1.67 6.98 1.34 8.96 1 11 C0.67 11 0.34 11 0 11 C0 7.37 0 3.74 0 0 Z " fill="#79BFCF" transform="translate(37,82)"/>
<path d="M0 0 C0.66 0.33 1.32 0.66 2 1 C3.48785577 8.48138798 3.11923877 16.40846498 3 24 C0.57520264 20.36280395 0.61337423 18.14296518 0.375 13.8125 C0.30023438 12.54019531 0.22546875 11.26789062 0.1484375 9.95703125 C0.09945312 8.98121094 0.05046875 8.00539063 0 7 C-1.96822886 8.96822886 -1.66248381 12.34808709 -2 15 C-2.66 15 -3.32 15 -4 15 C-4.33 15.99 -4.66 16.98 -5 18 C-6 16 -6 16 -5.546875 14.08203125 C-3.86755347 9.29925769 -2.06820824 4.62884702 0 0 Z " fill="#8FBC52" transform="translate(95,20)"/>
<path d="M0 0 C1.134375 0.020625 2.26875 0.04125 3.4375 0.0625 C3.7675 2.0425 4.0975 4.0225 4.4375 6.0625 C3.65375 6.35125 2.87 6.64 2.0625 6.9375 C-0.65921632 7.91162254 -0.65921632 7.91162254 -2.5625 10.0625 C-4.85654844 6.62142734 -4.82543056 5.09410191 -4.5625 1.0625 C-3.5625 0.0625 -3.5625 0.0625 0 0 Z " fill="#F3800C" transform="translate(123.5625,72.9375)"/>
<path d="M0 0 C5.78461538 4.18461538 5.78461538 4.18461538 6.875 8.3125 C6.936875 9.6428125 6.936875 9.6428125 7 11 C6.38125 11.12375 5.7625 11.2475 5.125 11.375 C2.80879168 11.87197356 2.80879168 11.87197356 1 14 C-2.625 13.625 -2.625 13.625 -6 13 C-6 11.35 -6 9.7 -6 8 C-5.67 8.99 -5.34 9.98 -5 11 C-3.02 10.34 -1.04 9.68 1 9 C1.80967438 6.08517222 2.21845993 4.53886783 1.0625 1.6875 C0.711875 1.130625 0.36125 0.57375 0 0 Z " fill="#9C2738" transform="translate(74,122)"/>
<path d="M0 0 C0.625 1.8125 0.625 1.8125 1 4 C0.01 5.485 0.01 5.485 -1 7 C-1.39387788 9.32387947 -1.73486085 11.65793749 -2 14 C-3.98 14.66 -5.96 15.32 -8 16 C-7.08404986 9.03562051 -5.02193351 4.9113878 0 0 Z " fill="#EF8319" transform="translate(138,133)"/>
<path d="M0 0 C5.41390868 0.46671627 9.20517932 1.24297811 14 4 C12.02 4.99 12.02 4.99 10 6 C10 6.99 10 7.98 10 9 C8.02 8.34 6.04 7.68 4 7 C4 6.34 4 5.68 4 5 C3.34 4.505 2.68 4.01 2 3.5 C1.34 3.005 0.68 2.51 0 2 C0 1.34 0 0.68 0 0 Z " fill="#AF2125" transform="translate(40,130)"/>
<path d="M0 0 C0.66 0 1.32 0 2 0 C2 0.66 2 1.32 2 2 C2.9590625 2.1546875 2.9590625 2.1546875 3.9375 2.3125 C4.618125 2.539375 5.29875 2.76625 6 3 C6.33 3.99 6.66 4.98 7 6 C9.09719872 7.02281518 9.09719872 7.02281518 11.5625 7.6875 C12.38878906 7.93886719 13.21507812 8.19023438 14.06640625 8.44921875 C14.70449219 8.63097656 15.34257812 8.81273438 16 9 C12.2632157 11.49118953 10.25548181 11.2065226 5.8125 11.125 C4.54019531 11.10695313 3.26789063 11.08890625 1.95703125 11.0703125 C0.49330078 11.03550781 0.49330078 11.03550781 -1 11 C-1 10.67 -1 10.34 -1 10 C1.64 9.67 4.28 9.34 7 9 C6.1028125 8.38125 6.1028125 8.38125 5.1875 7.75 C2.99031049 5.99224839 1.521099 4.35770345 0 2 C0 1.34 0 0.68 0 0 Z " fill="#EDBF21" transform="translate(158,91)"/>
<path d="M0 0 C0.66 0 1.32 0 2 0 C1.98839844 0.61488281 1.97679687 1.22976562 1.96484375 1.86328125 C1.95582031 2.67152344 1.94679688 3.47976562 1.9375 4.3125 C1.92589844 5.11300781 1.91429687 5.91351563 1.90234375 6.73828125 C1.90342145 9.16861334 1.90342145 9.16861334 3 12 C3.66 12.33 4.32 12.66 5 13 C5 13.66 5 14.32 5 15 C3.35 14.67 1.7 14.34 0 14 C-0.33 13.01 -0.66 12.02 -1 11 C-1.66 10.67 -2.32 10.34 -3 10 C-2.25 2.25 -2.25 2.25 0 0 Z " fill="#7DCAD9" transform="translate(22,86)"/>
<path d="M0 0 C0.99 0.33 1.98 0.66 3 1 C1.66666667 3.66666667 0.33333333 6.33333333 -1 9 C-2.65 9 -4.3 9 -6 9 C-7.125 3.25 -7.125 3.25 -6 1 C-4.7934375 1.0309375 -4.7934375 1.0309375 -3.5625 1.0625 C-1.06645115 1.29633621 -1.06645115 1.29633621 0 0 Z " fill="#216DAC" transform="translate(77,83)"/>
<path d="M0 0 C5.05255964 0.63156995 9.29593201 2.13459373 14 4 C13.67 4.99 13.34 5.98 13 7 C6.07 7 -0.86 7 -8 7 C-8.33 8.32 -8.66 9.64 -9 11 C-9 9.35 -9 7.7 -9 6 C-7.92878906 5.93941406 -6.85757813 5.87882812 -5.75390625 5.81640625 C-4.35675609 5.73201463 -2.95962143 5.64736594 -1.5625 5.5625 C-0.50192383 5.50352539 -0.50192383 5.50352539 0.58007812 5.44335938 C4.08690419 5.52375562 4.08690419 5.52375562 7 4 C4.69 3.01 2.38 2.02 0 1 C0 0.67 0 0.34 0 0 Z " fill="#EACD66" transform="translate(165,96)"/>
<path d="M0 0 C4.91935902 4.11619836 9.52647956 8.40410362 14 13 C12.64531705 17.87685861 10.28324091 19.48592381 6 22 C6.8125 19.0625 6.8125 19.0625 8 16 C8.99 15.67 9.98 15.34 11 15 C10.2575 14.071875 10.2575 14.071875 9.5 13.125 C8 11 8 11 8 9 C7.34 9 6.68 9 6 9 C4.4921875 7.5390625 4.4921875 7.5390625 2.875 5.625 C2.06675781 4.68527344 2.06675781 4.68527344 1.2421875 3.7265625 C0 2 0 2 0 0 Z " fill="#37617D" transform="translate(94,80)"/>
<path d="M0 0 C0.33 0.66 0.66 1.32 1 2 C0.01 3.485 0.01 3.485 -1 5 C-1.2475 6.010625 -1.495 7.02125 -1.75 8.0625 C-3.29352922 13.88807804 -6.74877799 19.74877799 -11 24 C-10.42515591 19.9904625 -9.16628226 17.28064567 -7 13.875 C-5.30329901 11.19127583 -4.00743074 9.02229222 -3 6 C-5.475 7.485 -5.475 7.485 -8 9 C-6.4169423 4.7257442 -3.49431596 2.73468206 0 0 Z " fill="#3B6FB6" transform="translate(66,52)"/>
<path d="M0 0 C2.0625 0.4375 2.0625 0.4375 4 1 C3.34 1 2.68 1 2 1 C2 1.66 2 2.32 2 3 C1.34 3 0.68 3 0 3 C0.33 4.65 0.66 6.3 1 8 C2.65 8.33 4.3 8.66 6 9 C6 6.03 6 3.06 6 0 C6.99 0.99 7.98 1.98 9 3 C8.875 6.0625 8.875 6.0625 8 9 C5 11 5 11 1.9375 10.9375 C-1 10 -1 10 -2.5 7.6875 C-3.07660517 4.58824723 -2.74086876 3.5654908 -1 1 C-0.67 0.67 -0.34 0.34 0 0 Z " fill="#269F90" transform="translate(121,124)"/>
<path d="M0 0 C-2.75487026 1.83658017 -3.98439447 2.36368717 -7.08984375 2.96484375 C-8.26643555 3.20557617 -8.26643555 3.20557617 -9.46679688 3.45117188 C-11.1094343 3.77450525 -12.75266582 4.09483542 -14.39648438 4.41210938 C-18.59446814 5.27650144 -21.7991322 5.93867957 -25 9 C-25.66 8.67 -26.32 8.34 -27 8 C-26.015625 5.61328125 -26.015625 5.61328125 -24 3 C-21.12559968 2.12634928 -18.68807922 1.58175507 -15.75 1.1875 C-15.01136719 1.06697266 -14.27273437 0.94644531 -13.51171875 0.82226562 C-8.96418886 0.12048632 -4.5977705 -0.11555243 0 0 Z " fill="#91BD50" transform="translate(108,49)"/>
<path d="M0 0 C0.70125 0.268125 1.4025 0.53625 2.125 0.8125 C2.95 1.121875 3.775 1.43125 4.625 1.75 C10.93452381 4.43154762 10.93452381 4.43154762 12.125 6.8125 C11.465 6.8125 10.805 6.8125 10.125 6.8125 C10.455 7.8025 10.785 8.7925 11.125 9.8125 C6.86378485 9.33903165 4.94126862 6.85110562 2.125 3.8125 C1.465 3.1525 0.805 2.4925 0.125 1.8125 C-2.845 4.2875 -2.845 4.2875 -5.875 6.8125 C-5.46816505 4.45285727 -4.97685661 2.95315912 -3.5625 1 C-1.875 -0.1875 -1.875 -0.1875 0 0 Z " fill="#22618F" transform="translate(87.875,89.1875)"/>
<path d="M0 0 C1.5625 1.0625 1.5625 1.0625 3 3 C2.6875 6.6875 2.6875 6.6875 2 10 C0.33388095 10.042721 -1.33382885 10.04063832 -3 10 C-4 9 -4 9 -4.0625 6.4375 C-4.041875 5.633125 -4.02125 4.82875 -4 4 C-3.34 4 -2.68 4 -2 4 C-2 3.34 -2 2.68 -2 2 C-1.34 2 -0.68 2 0 2 C0 1.34 0 0.68 0 0 Z " fill="#0CB29E" transform="translate(125,123)"/>
<path d="M0 0 C3.0782092 1.1193488 5.7442734 2.4448195 8.5 4.1875 C12.40939139 6.21200626 12.98338484 5.86845733 17 5 C19.3125 6.9375 19.3125 6.9375 21 9 C14.97634759 10.69142414 10.5086777 8.50244279 5 6 C1.8125 3.875 1.8125 3.875 0 2 C0 1.34 0 0.68 0 0 Z " fill="#6DB5C1" transform="translate(43,119)"/>
<path d="M0 0 C3 3 3 3 3.4375 6.4375 C3 10 3 10 1.25 12.375 C-1.0278193 14.02009172 -2.21139899 14.83099388 -5 15 C-7.6875 14.1875 -7.6875 14.1875 -10 13 C-10.33 12.34 -10.66 11.68 -11 11 C-10.07767578 11.01740234 -10.07767578 11.01740234 -9.13671875 11.03515625 C-7.92435547 11.04869141 -7.92435547 11.04869141 -6.6875 11.0625 C-5.88699219 11.07410156 -5.08648437 11.08570313 -4.26171875 11.09765625 C-1.83138666 11.09657855 -1.83138666 11.09657855 1 10 C0.67 6.7 0.34 3.4 0 0 Z " fill="#9F252A" transform="translate(46,139)"/>
<path d="M0 0 C0.66 0.33 1.32 0.66 2 1 C1.401875 2.134375 0.80375 3.26875 0.1875 4.4375 C-1.74607257 8.26365067 -3.09060696 12.10484623 -4.2890625 16.21484375 C-5 18 -5 18 -7 19 C-8.35439668 16.29120665 -8.06501451 13.99066732 -8 11 C-7.01 11.33 -6.02 11.66 -5 12 C-4.896875 10.906875 -4.79375 9.81375 -4.6875 8.6875 C-4.00711368 5.0381552 -3.76419369 4.18832 -1 2 C-0.67 1.34 -0.34 0.68 0 0 Z " fill="#BD4647" transform="translate(105,166)"/>
<path d="M0 0 C2.00993705 3.01490557 2.72623341 5.2149927 3.625 8.6875 C3.88539063 9.68136719 4.14578125 10.67523438 4.4140625 11.69921875 C4.60742188 12.45847656 4.80078125 13.21773437 5 14 C6.65 14 8.3 14 10 14 C10 15.65 10 17.3 10 19 C8.68 19 7.36 19 6 19 C2.29247306 12.94437266 -0.44284431 7.30693111 0 0 Z " fill="#EAC353" transform="translate(149,104)"/>
<path d="M0 0 C0 0.99 0 1.98 0 3 C0.33 3.99 0.66 4.98 1 6 C1.03954234 8.33299825 1.04401732 10.66708189 1 13 C0.731875 12.38125 0.46375 11.7625 0.1875 11.125 C-0.95556848 8.7004767 -0.95556848 8.7004767 -4 7 C-5.35251497 5.68612831 -6.68945377 4.35573748 -8 3 C-5.36 2.01 -2.72 1.02 0 0 Z " fill="#F48A24" transform="translate(127,79)"/>
<path d="M0 0 C1.2065625 0.0309375 1.2065625 0.0309375 2.4375 0.0625 C2.4375 0.7225 2.4375 1.3825 2.4375 2.0625 C3.0975 2.0625 3.7575 2.0625 4.4375 2.0625 C4.7675 1.4025 5.0975 0.7425 5.4375 0.0625 C5.4375 1.3825 5.4375 2.7025 5.4375 4.0625 C1.5871895 6.62937367 -0.14819763 5.89538724 -4.5625 5.0625 C-3.43829114 0.08386076 -3.43829114 0.08386076 0 0 Z " fill="#F5C217" transform="translate(167.5625,113.9375)"/>
<path d="M0 0 C0.66 0.33 1.32 0.66 2 1 C-0.64 4.63 -3.28 8.26 -6 12 C-6.66 11.67 -7.32 11.34 -8 11 C-7.25 4.375 -7.25 4.375 -5 1 C-5 2.32 -5 3.64 -5 5 C-4.34 5 -3.68 5 -3 5 C-2.814375 4.0409375 -2.814375 4.0409375 -2.625 3.0625 C-2.41875 2.381875 -2.2125 1.70125 -2 1 C-1.34 0.67 -0.68 0.34 0 0 Z " fill="#8CB85C" transform="translate(79,58)"/>
<path d="M0 0 C0.99 0.33 1.98 0.66 3 1 C3.33 1.99 3.66 2.98 4 4 C3.01 4 2.02 4 1 4 C1.33 5.98 1.66 7.96 2 10 C0.35 10.33 -1.3 10.66 -3 11 C-2.53199289 6.94393835 -2.12046792 3.53411321 0 0 Z " fill="#D98440" transform="translate(127,149)"/>
<path d="M0 0 C0.34179688 2.97851562 0.34179688 2.97851562 0.68359375 5.95703125 C0.97170735 8.19396393 0.97170735 8.19396393 2 11 C3.093125 11 4.18625 11 5.3125 11 C7.54166667 11 9.77083333 11 12 11 C10 13 10 13 6.0625 13.3125 C3.48484856 13.23778547 2.28492058 13.17462874 0.0625 11.8125 C-1.24912987 9.57501375 -1.65447612 7.55687669 -2 5 C-2.66 5 -3.32 5 -4 5 C-3.625 3.0625 -3.625 3.0625 -3 1 C-1 0 -1 0 0 0 Z " fill="#EDC447" transform="translate(161,108)"/>
<path d="M0 0 C1.33333333 0.66666667 2.66666667 1.33333333 4 2 C4.639375 2.2475 5.27875 2.495 5.9375 2.75 C8 4 8 4 10.25 7.0625 C11.81726569 9.08176708 12.61766896 9.88821979 15.09765625 10.61328125 C17.05569974 10.844655 19.02946551 10.93320222 21 11 C18 13 18 13 15.0625 12.8125 C11.98118913 11.99500936 10.28350644 11.19567927 8 9 C8 8.34 8 7.68 8 7 C7.4225 6.773125 6.845 6.54625 6.25 6.3125 C3.4336339 4.66961977 1.91922886 2.60466773 0 0 Z " fill="#299B8D" transform="translate(96,121)"/>
<path d="M0 0 C0.598125 0.350625 1.19625 0.70125 1.8125 1.0625 C1.4825 2.7125 1.1525 4.3625 0.8125 6.0625 C-1.4975 6.0625 -3.8075 6.0625 -6.1875 6.0625 C-5.5275 5.7325 -4.8675 5.4025 -4.1875 5.0625 C-4.1875 4.4025 -4.1875 3.7425 -4.1875 3.0625 C-4.8475 3.0625 -5.5075 3.0625 -6.1875 3.0625 C-5.8575 2.0725 -5.5275 1.0825 -5.1875 0.0625 C-2.1875 -0.9375 -2.1875 -0.9375 0 0 Z " fill="#236AA5" transform="translate(75.1875,74.9375)"/>
<path d="M0 0 C1.27875 -0.061875 2.5575 -0.12375 3.875 -0.1875 C4.95394531 -0.23970703 4.95394531 -0.23970703 6.0546875 -0.29296875 C6.69664063 -0.19628906 7.33859375 -0.09960938 8 0 C8.66 0.99 9.32 1.98 10 3 C7.03 2.505 7.03 2.505 4 2 C3.67 2.99 3.34 3.98 3 5 C2.01 5 1.02 5 0 5 C-0.0825 5.78375 -0.165 6.5675 -0.25 7.375 C-1 10 -1 10 -3.0625 11.3125 C-4.0215625 11.6528125 -4.0215625 11.6528125 -5 12 C-4.319375 10.9790625 -4.319375 10.9790625 -3.625 9.9375 C-1.83163514 6.69564814 -0.91246131 3.5796559 0 0 Z " fill="#256089" transform="translate(79,73)"/>
<path d="M0 0 C7.34388016 4.41636529 7.34388016 4.41636529 8.859375 8.07421875 C9.35121226 11.24188491 9.46791965 13.34898135 7.5625 16 C7.046875 16.33 6.53125 16.66 6 17 C6 14.36 6 11.72 6 9 C4.35 8.67 2.7 8.34 1 8 C1.20625 7.4225 1.4125 6.845 1.625 6.25 C2.08955171 3.46268972 1.33184618 2.41969001 0 0 Z " fill="#1C9687" transform="translate(119,106)"/>
<path d="M0 0 C0.66 0.33 1.32 0.66 2 1 C1.46375 1.7425 0.9275 2.485 0.375 3.25 C-1.27891154 5.81835766 -1.27891154 5.81835766 -0.5 8.0625 C1.00430605 10.18745055 1.00430605 10.18745055 3.625 11.9375 C6 14 6 14 6.3125 16.75 C6.1578125 17.86375 6.1578125 17.86375 6 19 C5.67 17.68 5.34 16.36 5 15 C3.68 15 2.36 15 1 15 C-0.5625 12.6875 -0.5625 12.6875 -2 10 C-2.99 9.01 -3.98 8.02 -5 7 C-3.35 4.69 -1.7 2.38 0 0 Z " fill="#BF8142" transform="translate(104,76)"/>
<path d="M0 0 C1.32 0 2.64 0 4 0 C4 0.66 4 1.32 4 2 C3.01 2 2.02 2 1 2 C1.33 3.010625 1.66 4.02125 2 5.0625 C3.05672561 8.7761357 3.30366444 12.12827836 3 16 C2.34 16.66 1.68 17.32 1 18 C1 17.01 1 16.02 1 15 C0.34 14.67 -0.32 14.34 -1 14 C-0.67 9.38 -0.34 4.76 0 0 Z " fill="#D72123" transform="translate(98,162)"/>
<path d="M0 0 C0.66 0 1.32 0 2 0 C2 1.98 2 3.96 2 6 C-0.375 7.0625 -0.375 7.0625 -3 8 C-3.66 7.67 -4.32 7.34 -5 7 C-5 6.34 -5 5.68 -5 5 C-4.01 5 -3.02 5 -2 5 C-2 4.34 -2 3.68 -2 3 C-3.32 3 -4.64 3 -6 3 C-6 2.34 -6 1.68 -6 1 C-4.7934375 1.0309375 -4.7934375 1.0309375 -3.5625 1.0625 C-1.06645115 1.29633621 -1.06645115 1.29633621 0 0 Z " fill="#F68114" transform="translate(144,157)"/>
<path d="M0 0 C0.33 0 0.66 0 1 0 C1.61538462 8.15384615 1.61538462 8.15384615 -0.5 11.0625 C-4.04973206 12.39364952 -7.30956619 12.81847245 -11 12 C-14 9.5 -14 9.5 -16 7 C-15.67 6.01 -15.34 5.02 -15 4 C-13.95833333 5.5625 -12.91666667 7.125 -11.875 8.6875 C-8.78337207 10.85163955 -5.69911208 10.18192354 -2 10 C-1.34 6.7 -0.68 3.4 0 0 Z " fill="#D8995B" transform="translate(147,155)"/>
<path d="M0 0 C0.66 0 1.32 0 2 0 C2 0.66 2 1.32 2 2 C2.99 2 3.98 2 5 2 C6.125 4.3125 6.125 4.3125 7 7 C6.01 8.485 6.01 8.485 5 10 C4.67 9.01 4.34 8.02 4 7 C2.1128125 6.9690625 2.1128125 6.9690625 0.1875 6.9375 C-0.52019531 6.92589844 -1.22789062 6.91429687 -1.95703125 6.90234375 C-4.20305461 6.91736783 -4.20305461 6.91736783 -7 8 C-7 7.34 -7 6.68 -7 6 C-4.59454362 4.79727181 -3.05003047 4.89928528 -0.375 4.9375 C0.85089844 4.95103516 0.85089844 4.95103516 2.1015625 4.96484375 C3.04128906 4.98224609 3.04128906 4.98224609 4 5 C3.34 4.360625 2.68 3.72125 2 3.0625 C0 1 0 1 0 0 Z " fill="#DD8E42" transform="translate(141,146)"/>
<path d="M0 0 C0 0.66 0 1.32 0 2 C-6.75 6 -6.75 6 -9 6 C-9 4.35 -9 2.7 -9 1 C-3.375 -1.125 -3.375 -1.125 0 0 Z " fill="#A8242E" transform="translate(92,144)"/>
<path d="M0 0 C-0.598125 0.226875 -1.19625 0.45375 -1.8125 0.6875 C-4.66630157 2.39978094 -5.57202259 4.00804733 -7 7 C-7.71401232 10.19395026 -7.71401232 10.19395026 -8 13 C-8.66 12.67 -9.32 12.34 -10 12 C-9.65500945 3.77197543 -9.65500945 3.77197543 -7.25 0.9375 C-4.66551808 -0.13936747 -2.77405951 -0.23117163 0 0 Z " fill="#A2212E" transform="translate(43,137)"/>
<path d="M0 0 C3.70293685 -0.33663062 5.39534381 -0.47736015 8.375 1.875 C10 4 10 4 10 6 C6.6875 5.8125 6.6875 5.8125 3 5 C1.0625 2.4375 1.0625 2.4375 0 0 Z " fill="#6ACBE8" transform="translate(49,120)"/>
<path d="M0 0 C1.1055189 0.93590504 2.20935453 1.87379858 3.3125 2.8125 C3.92738281 3.33457031 4.54226562 3.85664062 5.17578125 4.39453125 C6.85424679 5.87172469 8.43882034 7.40039131 10 9 C9.67 9.99 9.34 10.98 9 12 C8.34 12 7.68 12 7 12 C7 10.68 7 9.36 7 8 C6.401875 7.896875 5.80375 7.79375 5.1875 7.6875 C2.67667019 6.89838206 1.71824704 5.95255346 0 4 C-0.66 3.34 -1.32 2.68 -2 2 C-1.34 2 -0.68 2 0 2 C0 1.34 0 0.68 0 0 Z " fill="#23A792" transform="translate(97,106)"/>
<path d="M0 0 C0.99 0.33 1.98 0.66 3 1 C3.33 1.99 3.66 2.98 4 4 C4.66 4.33 5.32 4.66 6 5 C6.33 4.34 6.66 3.68 7 3 C7.66 5.97 8.32 8.94 9 12 C5 11 5 11 3.515625 8.75 C3.09796875 7.8425 2.6803125 6.935 2.25 6 C1.82203125 5.0925 1.3940625 4.185 0.953125 3.25 C0 1 0 1 0 0 Z " fill="#3B5F9C" transform="translate(48,85)"/>
<path d="M0 0 C0.66 0.33 1.32 0.66 2 1 C1.525625 1.886875 1.05125 2.77375 0.5625 3.6875 C-0.79737149 6.57042756 -1.54060386 8.87610623 -2 12 C-3.32 11.01 -4.64 10.02 -6 9 C-5 7 -4 5 -3 3 C-2.34 3 -1.68 3 -1 3 C-0.67 2.01 -0.34 1.02 0 0 Z " fill="#27948B" transform="translate(94,105)"/>
<path d="M0 0 C0 1.32 0 2.64 0 4 C-3.27185553 5.07310858 -5.42947592 4.89263102 -8.75 4.0625 C-9.54921875 3.86785156 -10.3484375 3.67320312 -11.171875 3.47265625 C-11.77515625 3.31667969 -12.3784375 3.16070312 -13 3 C-8.49192825 0.69441653 -5.09714099 -0.14158725 0 0 Z " fill="#CC252A" transform="translate(104,153)"/>
<path d="M0 0 C0.75 1.75 0.75 1.75 1 4 C-0.6875 6.3125 -0.6875 6.3125 -3 8 C-5.25 7.75 -5.25 7.75 -7 7 C-7 5.68 -7 4.36 -7 3 C-6.01 2.67 -5.02 2.34 -4 2 C-3.34 2.33 -2.68 2.66 -2 3 C-2 2.34 -2 1.68 -2 1 C-1.34 0.67 -0.68 0.34 0 0 Z " fill="#EE1925" transform="translate(115,150)"/>
<path d="M0 0 C2.64 0.33 5.28 0.66 8 1 C8 1.99 8 2.98 8 4 C5 6 5 6 2.8125 5.625 C2.214375 5.41875 1.61625 5.2125 1 5 C0.67 3.35 0.34 1.7 0 0 Z " fill="#6CD0F0" transform="translate(23,93)"/>
<path d="M0 0 C0.33 1.98 0.66 3.96 1 6 C0.01 6.495 0.01 6.495 -1 7 C-1.33 5.02 -1.66 3.04 -2 1 C-7.55053286 1.74359673 -7.55053286 1.74359673 -13 3 C-8.40928994 -1.90731076 -6.3017605 -2.38066508 0 0 Z " fill="#E0973C" transform="translate(129,72)"/>
<path d="M0 0 C1 2 1 2 0.0625 5.125 C-0.288125 6.07375 -0.63875 7.0225 -1 8 C-1.99 8 -2.98 8 -4 8 C-4 8.99 -4 9.98 -4 11 C-5.32 10.67 -6.64 10.34 -8 10 C-5.36 6.7 -2.72 3.4 0 0 Z " fill="#8BC140" transform="translate(88,38)"/>
<path d="M0 0 C2.530472 0.33739627 3.6818563 0.6061078 5.3125 2.625 C6.28954394 6.0002427 5.76767726 8.60942542 5 12 C4.01 12.495 4.01 12.495 3 13 C3 9.37 3 5.74 3 2 C2.01 2 1.02 2 0 2 C0 1.34 0 0.68 0 0 Z " fill="#EDC843" transform="translate(170,105)"/>
<path d="M0 0 C1.32 0 2.64 0 4 0 C4.33 0.66 4.66 1.32 5 2 C6.32 1.67 7.64 1.34 9 1 C9.73080266 2.97746603 10.39421747 4.98072489 11 7 C10.67 7.66 10.34 8.32 10 9 C8.33043913 7.69118353 6.66441696 6.37785174 5 5.0625 C4.071875 4.33160156 3.14375 3.60070312 2.1875 2.84765625 C1.465625 2.23792969 0.74375 1.62820312 0 1 C0 0.67 0 0.34 0 0 Z " fill="#7FCEDC" transform="translate(32,111)"/>
<path d="M0 0 C0.99 0.33 1.98 0.66 3 1 C3.94921875 3.06640625 3.94921875 3.06640625 4.6875 5.5625 C4.93886719 6.38878906 5.19023438 7.21507813 5.44921875 8.06640625 C5.63097656 8.70449219 5.81273437 9.34257813 6 10 C5.34 10 4.68 10 4 10 C3.34 8.35 2.68 6.7 2 5 C1.67 6.98 1.34 8.96 1 11 C0.67 11 0.34 11 0 11 C0 7.37 0 3.74 0 0 Z " fill="#71B5C7" transform="translate(37,82)"/>
<path d="M0 0 C0.33 0 0.66 0 1 0 C0.9175 1.216875 0.835 2.43375 0.75 3.6875 C0.72528316 7.16639526 0.95888443 7.93832664 3 11 C3.66 11.66 4.32 12.32 5 13 C1.63408134 11.55746343 -0.51047079 9.66735273 -3 7 C-1.125 1.125 -1.125 1.125 0 0 Z " fill="#EE841A" transform="translate(105,77)"/>
<path d="M0 0 C7 8.75 7 8.75 7 14 C2.125 12.25 2.125 12.25 1 10 C1.66 9.67 2.32 9.34 3 9 C2.505 8.071875 2.01 7.14375 1.5 6.1875 C0 3 0 3 0 0 Z " fill="#D99F5A" transform="translate(150,146)"/>
<path d="M0 0 C0.75 1.75 0.75 1.75 1 4 C-0.8125 6.25 -0.8125 6.25 -3 8 C-3.66 8 -4.32 8 -5 8 C-5 8.99 -5 9.98 -5 11 C-5.66 11 -6.32 11 -7 11 C-5.72278474 6.00724943 -3.82669043 3.42388092 0 0 Z " fill="#E28936" transform="translate(138,133)"/>
<path d="M0 0 C1.65 0 3.3 0 5 0 C5 0.99 5 1.98 5 3 C5.66 3.33 6.32 3.66 7 4 C4.525 5.485 4.525 5.485 2 7 C1.34 4.69 0.68 2.38 0 0 Z " fill="#BF171C" transform="translate(49,135)"/>
<path d="M0 0 C5.78461538 4.18461538 5.78461538 4.18461538 6.875 8.3125 C6.936875 9.6428125 6.936875 9.6428125 7 11 C5.68 11 4.36 11 3 11 C2.87625 9.9275 2.7525 8.855 2.625 7.75 C2.10356064 4.62136385 1.59911746 2.66519576 0 0 Z " fill="#991A29" transform="translate(74,122)"/>
<path d="M0 0 C0.66 0.33 1.32 0.66 2 1 C1.505 1.37125 1.01 1.7425 0.5 2.125 C-1.64945323 4.81181653 -1.34274009 6.64114713 -1 10 C-0.10168984 12.30230766 -0.10168984 12.30230766 1 14 C-0.9375 13.625 -0.9375 13.625 -3 13 C-4.42662219 10.14675563 -4.31033868 8.16545451 -4 5 C-2 2.125 -2 2.125 0 0 Z " fill="#3C61A6" transform="translate(51,39)"/>
<path d="M0 0 C0 5.28 0 10.56 0 16 C-0.33 16 -0.66 16 -1 16 C-1.33 12.37 -1.66 8.74 -2 5 C-2.66 5 -3.32 5 -4 5 C-4 3.68 -4 2.36 -4 1 C-2 0 -2 0 0 0 Z " fill="#CA2B36" transform="translate(98,158)"/>
<path d="M0 0 C0.66 1.32 1.32 2.64 2 4 C1.34 4 0.68 4 0 4 C0 4.66 0 5.32 0 6 C-2.97 6 -5.94 6 -9 6 C-6 4 -3 2 0 0 Z " fill="#C12930" transform="translate(113,147)"/>
<path d="M0 0 C1.98 0.66 3.96 1.32 6 2 C6 3.32 6 4.64 6 6 C3.69 5.34 1.38 4.68 -1 4 C-1 1 -1 1 0 0 Z " fill="#1E70AE" transform="translate(83,74)"/>
<path d="M0 0 C0.66 0 1.32 0 2 0 C2.36923077 5.53846154 2.36923077 5.53846154 0.5 7.875 C-0.2425 8.431875 -0.2425 8.431875 -1 9 C-2.32 8.34 -3.64 7.68 -5 7 C-3.68 6.67 -2.36 6.34 -1 6 C-0.67 4.02 -0.34 2.04 0 0 Z " fill="#D1232B" transform="translate(94,170)"/>
<path d="M0 0 C0.33 0.66 0.66 1.32 1 2 C3.02463255 2.65213292 3.02463255 2.65213292 5 3 C3.71349294 3.69710731 2.42059335 4.38242876 1.125 5.0625 C0.04605469 5.63677734 0.04605469 5.63677734 -1.0546875 6.22265625 C-1.69664063 6.47917969 -2.33859375 6.73570312 -3 7 C-3.66 6.67 -4.32 6.34 -5 6 C-3.35 4.02 -1.7 2.04 0 0 Z " fill="#8E3038" transform="translate(45,155)"/>
<path d="M0 0 C1.61949011 2.57213134 2.04408751 3.67669159 1.625 6.75 C1.41875 7.4925 1.2125 8.235 1 9 C-2.0109362 6.9927092 -2.63016497 6.16115776 -4 3 C-2.68 2.01 -1.36 1.02 0 0 Z " fill="#B41E24" transform="translate(56,138)"/>
<path d="M0 0 C0.66 0.33 1.32 0.66 2 1 C2 1.66 2 2.32 2 3 C-0.47531189 5.12169591 -3.05043472 6.63055898 -6 8 C-6.33 7.34 -6.66 6.68 -7 6 C-6.34 6 -5.68 6 -5 6 C-4.731875 5.195625 -4.46375 4.39125 -4.1875 3.5625 C-3.5996875 2.2940625 -3.5996875 2.2940625 -3 1 C-2.01 0.67 -1.02 0.34 0 0 Z " fill="#883B46" transform="translate(91,105)"/>
<path d="M0 0 C1 3 1 3 -0.14453125 5.41015625 C-0.69496094 6.28542969 -1.24539062 7.16070312 -1.8125 8.0625 C-2.62654297 9.37927734 -2.62654297 9.37927734 -3.45703125 10.72265625 C-5 13 -5 13 -7 15 C-6.42176904 10.93774452 -5.10882263 8.15237654 -2.9375 4.6875 C-2.38964844 3.80449219 -1.84179688 2.92148437 -1.27734375 2.01171875 C-0.64505859 1.01591797 -0.64505859 1.01591797 0 0 Z " fill="#3B669E" transform="translate(62,61)"/>
<path d="M0 0 C-0.6875 1.9375 -0.6875 1.9375 -2 4 C-4.625 4.75 -4.625 4.75 -7 5 C-6.34 3.68 -5.68 2.36 -5 1 C-5.66 0.67 -6.32 0.34 -7 0 C-3.98968256 -0.93423645 -3.13349732 -1.04449911 0 0 Z " fill="#90B85D" transform="translate(119,42)"/>
<path d="M0 0 C-0.56371414 3.26954202 -1.49962266 4.82575883 -4 7 C-4.33 6.01 -4.66 5.02 -5 4 C-5.99 3.67 -6.98 3.34 -8 3 C-3.375 0 -3.375 0 0 0 Z " fill="#DFEA84" transform="translate(155,43)"/>
<path d="M0 0 C0.66 0 1.32 0 2 0 C2 0.99 2 1.98 2 3 C1.34 3 0.68 3 0 3 C0 3.66 0 4.32 0 5 C-0.928125 5.12375 -0.928125 5.12375 -1.875 5.25 C-4.18437567 5.81258459 -4.18437567 5.81258459 -5.25 8.0625 C-5.4975 8.701875 -5.745 9.34125 -6 10 C-6 8.33333333 -6 6.66666667 -6 5 C-2.53846154 2 -2.53846154 2 0 2 C0 1.34 0 0.68 0 0 Z " fill="#38A576" transform="translate(116,106)"/>
<path d="M0 0 C0.66 0.33 1.32 0.66 2 1 C1.67 1.33 1.34 1.66 1 2 C3.64 2.33 6.28 2.66 9 3 C9 3.33 9 3.66 9 4 C7.7625 4.144375 6.525 4.28875 5.25 4.4375 C2.43495501 4.78688502 -0.2701497 5.20379366 -3 6 C-2.42655063 3.13275314 -2.1385485 2.1385485 0 0 Z " fill="#D7DB6F" transform="translate(106,57)"/>
<path d="M0 0 C1.98 0 3.96 0 6 0 C5.75 1.875 5.75 1.875 5 4 C2.9375 5.25 2.9375 5.25 1 6 C1 5.01 1 4.02 1 3 C0.34 2.67 -0.32 2.34 -1 2 C-0.67 1.34 -0.34 0.68 0 0 Z " fill="#E31F27" transform="translate(85,166)"/>
<path d="M0 0 C1.32 0.66 2.64 1.32 4 2 C3.67 2.66 3.34 3.32 3 4 C1.68 4 0.36 4 -1 4 C-1.33 5.32 -1.66 6.64 -2 8 C-1.34 8.33 -0.68 8.66 0 9 C-0.99 9 -1.98 9 -3 9 C-3.75 6.75 -3.75 6.75 -4 4 C-2.0625 1.6875 -2.0625 1.6875 0 0 Z " fill="#AC1D2F" transform="translate(72,124)"/>
<path d="M0 0 C1.32 0.66 2.64 1.32 4 2 C4 3.32 4 4.64 4 6 C1.36 5.34 -1.28 4.68 -4 4 C-4 3.34 -4 2.68 -4 2 C-2.68 2 -1.36 2 0 2 C0 1.34 0 0.68 0 0 Z " fill="#D1D85F" transform="translate(150,71)"/>
<path d="M0 0 C5.95703125 -0.29296875 5.95703125 -0.29296875 8 0 C8.99 0.99 9.98 1.98 11 3 C7.04 3 3.08 3 -1 3 C-0.67 2.01 -0.34 1.02 0 0 Z " fill="#CEE029" transform="translate(148,53)"/>
<path d="M0 0 C2.64 0 5.28 0 8 0 C8 0.99 8 1.98 8 3 C5.69 3.33 3.38 3.66 1 4 C0.67 2.68 0.34 1.36 0 0 Z " fill="#C61721" transform="translate(39,146)"/>
<path d="M0 0 C0 2.64 0 5.28 0 8 C-0.33 7.01 -0.66 6.02 -1 5 C-3.475 6.485 -3.475 6.485 -6 8 C-3.18918919 0 -3.18918919 0 0 0 Z " fill="#A8494B" transform="translate(123,136)"/>
<path d="M0 0 C2.20700414 0.96556431 3.42932829 2.06872753 5 3.875 C4.01 3.875 3.02 3.875 2 3.875 C1.34 3.215 0.68 2.555 0 1.875 C-2.97 4.35 -2.97 4.35 -6 6.875 C-5.59316505 4.51535727 -5.10185661 3.01565912 -3.6875 1.0625 C-2 -0.125 -2 -0.125 0 0 Z " fill="#2C5A82" transform="translate(88,89.125)"/>
<path d="M0 0 C1.65 0.33 3.3 0.66 5 1 C4.67 2.32 4.34 3.64 4 5 C3.34 5 2.68 5 2 5 C1.67 4.01 1.34 3.02 1 2 C0.34 3.65 -0.32 5.3 -1 7 C-2 4 -2 4 -1.0625 1.8125 C-0.5365625 0.9153125 -0.5365625 0.9153125 0 0 Z " fill="#CBDF1B" transform="translate(148,55)"/>
<path d="M0 0 C0.99 0.33 1.98 0.66 3 1 C3 1.66 3 2.32 3 3 C2.34 3 1.68 3 1 3 C1 3.66 1 4.32 1 5 C-0.375 6.5 -0.375 6.5 -2 8 C-2.66 8.66 -3.32 9.32 -4 10 C-3.67 8.02 -3.34 6.04 -3 4 C-2.34 4 -1.68 4 -1 4 C-0.67 2.68 -0.34 1.36 0 0 Z " fill="#8ABF41" transform="translate(78,49)"/>
<path d="M0 0 C0.66 0.99 1.32 1.98 2 3 C1.34 3.66 0.68 4.32 0 5 C-0.6425235 7.06874034 -0.6425235 7.06874034 -1 9 C-1.99 8.67 -2.98 8.34 -4 8 C-1.125 1.125 -1.125 1.125 0 0 Z " fill="#D12430" transform="translate(83,165)"/>
<path d="M0 0 C0.78375 0.04125 1.5675 0.0825 2.375 0.125 C2.045 1.115 1.715 2.105 1.375 3.125 C2.695 3.455 4.015 3.785 5.375 4.125 C3.375 5.125 3.375 5.125 1.4296875 4.56640625 C0.71039062 4.27636719 -0.00890625 3.98632812 -0.75 3.6875 C-1.47445313 3.40003906 -2.19890625 3.11257812 -2.9453125 2.81640625 C-3.77675781 2.47416016 -3.77675781 2.47416016 -4.625 2.125 C-2.625 0.125 -2.625 0.125 0 0 Z " fill="#82BBC8" transform="translate(20.625,102.875)"/>
<path d="M0 0 C1.14926266 0.95421808 2.29430541 1.91352045 3.4375 2.875 C4.07558594 3.40867187 4.71367188 3.94234375 5.37109375 4.4921875 C7 6 7 6 8 8 C5.125 7.375 5.125 7.375 2 6 C0.625 2.875 0.625 2.875 0 0 Z " fill="#A2303E" transform="translate(84,113)"/>
<path d="M0 0 C0.99 0 1.98 0 3 0 C4.4783226 2.95664519 4.06032783 5.74229737 4 9 C3.731875 8.38125 3.46375 7.7625 3.1875 7.125 C2.04443152 4.7004767 2.04443152 4.7004767 -1 3 C-0.67 2.01 -0.34 1.02 0 0 Z " fill="#E88E2E" transform="translate(124,83)"/>
<path d="M0 0 C1.13199353 0.9080162 2.25532363 1.82683826 3.375 2.75 C4.00148438 3.26046875 4.62796875 3.7709375 5.2734375 4.296875 C7.08312318 6.08199481 8.00117455 7.67949644 9 10 C7.67823515 9.09674384 6.36784934 8.17682097 5.0625 7.25 C4.33160156 6.73953125 3.60070313 6.2290625 2.84765625 5.703125 C0.79194601 3.80822085 0.37330824 2.72574271 0 0 Z " fill="#365B9B" transform="translate(46,52)"/>
<path d="M0 0 C3.6875 -0.3125 3.6875 -0.3125 7 0 C6.0409375 0.1546875 6.0409375 0.1546875 5.0625 0.3125 C4.381875 0.539375 3.70125 0.76625 3 1 C2.67 1.99 2.34 2.98 2 4 C0.35 4.33 -1.3 4.66 -3 5 C-1.9375 2.5 -1.9375 2.5 0 0 Z " fill="#87C837" transform="translate(103,26)"/>
<path d="M0 0 C0.33 0 0.66 0 1 0 C1 1.98 1 3.96 1 6 C-0.65 6.33 -2.3 6.66 -4 7 C-4 6.01 -4 5.02 -4 4 C-3.34 4 -2.68 4 -2 4 C-2 3.34 -2 2.68 -2 2 C-1.34 2 -0.68 2 0 2 C0 1.34 0 0.68 0 0 Z " fill="#08BAAB" transform="translate(125,123)"/>
<path d="M0 0 C0.66 0.33 1.32 0.66 2 1 C2 1.66 2 2.32 2 3 C3.65 3.33 5.3 3.66 7 4 C7 4.33 7 4.66 7 5 C4.69 5.33 2.38 5.66 0 6 C-1.24546405 3.50907189 -0.7767578 2.58919267 0 0 Z " fill="#F3C21C" transform="translate(151,86)"/>
<path d="M0 0 C-2 2 -2 2 -5.625 2.125 C-6.73875 2.08375 -7.8525 2.0425 -9 2 C-9.33 1.34 -9.66 0.68 -10 0 C-6.33694766 -0.74926071 -3.57644848 -1.2380014 0 0 Z " fill="#D7E85B" transform="translate(159,67)"/>
<path d="M0 0 C0.99 0 1.98 0 3 0 C2.625 2.9375 2.625 2.9375 2 6 C1.01 6.495 1.01 6.495 0 7 C-0.38133299 5.0085944 -0.71325582 3.00720923 -1 1 C-0.67 0.67 -0.34 0.34 0 0 Z " fill="#EF191D" transform="translate(83,169)"/>
<path d="M0 0 C7.75 0.75 7.75 0.75 10 3 C7.03 3 4.06 3 1 3 C0.67 2.01 0.34 1.02 0 0 Z " fill="#94383D" transform="translate(40,130)"/>
<path d="M0 0 C0.66 0.33 1.32 0.66 2 1 C0.75 3.9375 0.75 3.9375 -1 7 C-3.1875 7.875 -3.1875 7.875 -5 8 C-3.62845496 5.04590299 -2.01136276 2.55991624 0 0 Z " fill="#BD804A" transform="translate(107,95)"/>
<path d="M0 0 C4.8 3.44615385 4.8 3.44615385 5.8125 6.25 C5.874375 6.8275 5.93625 7.405 6 8 C3 6.25 3 6.25 0 4 C0 2.68 0 1.36 0 0 Z " fill="#246596" transform="translate(89,76)"/>
<path d="M0 0 C0 0.66 0 1.32 0 2 C0.66 2.33 1.32 2.66 2 3 C-3.94 2.01 -3.94 2.01 -10 1 C-10 0.67 -10 0.34 -10 0 C-6.30458414 -0.95024979 -3.69541586 -0.95024979 0 0 Z " fill="#D2E05F" transform="translate(126,60)"/>
<path d="M0 0 C0.66 0.33 1.32 0.66 2 1 C0.68 3.64 -0.64 6.28 -2 9 C-2.66 9 -3.32 9 -4 9 C-4 5 -4 5 -2.5625 3.375 C-2.046875 2.92125 -1.53125 2.4675 -1 2 C-0.67 1.34 -0.34 0.68 0 0 Z " fill="#BE3334" transform="translate(105,166)"/>
<path d="M0 0 C0.33 0 0.66 0 1 0 C1.28780586 3.05074215 1.45787911 5.96183742 1 9 C-1.5 11.0625 -1.5 11.0625 -4 12 C-4 11.34 -4 10.68 -4 10 C-3.34 10 -2.68 10 -2 10 C-1.34 6.7 -0.68 3.4 0 0 Z " fill="#E29D60" transform="translate(147,155)"/>
<path d="M0 0 C3.37503669 1.1858237 5.64722731 2.27573689 8 5 C5.125 4.75 5.125 4.75 2 4 C0.625 1.9375 0.625 1.9375 0 0 Z " fill="#74C0CB" transform="translate(43,119)"/>
<path d="M0 0 C0.66 0 1.32 0 2 0 C2 0.66 2 1.32 2 2 C2.639375 2.12375 3.27875 2.2475 3.9375 2.375 C4.618125 2.58125 5.29875 2.7875 6 3 C6.33 3.66 6.66 4.32 7 5 C5.35 5.33 3.7 5.66 2 6 C1.34 4.02 0.68 2.04 0 0 Z " fill="#E7C542" transform="translate(158,91)"/>
<path d="M0 0 C2.97 0.33 5.94 0.66 9 1 C9 1.99 9 2.98 9 4 C6.03 3.01 3.06 2.02 0 1 C0 0.67 0 0.34 0 0 Z " fill="#EEBA1D" transform="translate(132,78)"/>
<path d="M0 0 C0 0.66 0 1.32 0 2 C-1.65 2.66 -3.3 3.32 -5 4 C-5.33 2.68 -5.66 1.36 -6 0 C-3 -1 -3 -1 0 0 Z " fill="#842E3B" transform="translate(92,144)"/>
<path d="M0 0 C5.75 -0.125 5.75 -0.125 8 1 C8 1.66 8 2.32 8 3 C3.44615385 3.36923077 3.44615385 3.36923077 1.1875 1.5 C0.5996875 0.7575 0.5996875 0.7575 0 0 Z " fill="#B61E28" transform="translate(59,141)"/>
<path d="M0 0 C1.98 1.65 3.96 3.3 6 5 C5.01 5.495 5.01 5.495 4 6 C1.96855359 5.06553465 -0.03533587 4.06775224 -2 3 C-1.34 2.67 -0.68 2.34 0 2 C0 1.34 0 0.68 0 0 Z " fill="#389C8E" transform="translate(97,106)"/>
<path d="M0 0 C2.64 0.66 5.28 1.32 8 2 C8 2.66 8 3.32 8 4 C6.68 4.33 5.36 4.66 4 5 C2.68 3.35 1.36 1.7 0 0 Z " fill="#335877" transform="translate(72,96)"/>
<path d="" fill="#666666" transform="translate(0,0)"/>
<path d="" fill="#000000" transform="translate(0,0)"/>
</svg>
